<?xml version="1.0" standalone="no"?>
<!DOCTYPE svg PUBLIC "-//W3C//DTD SVG 1.1//EN" "http://www.w3.org/Graphics/SVG/1.1/DTD/svg11.dtd" >
<svg xmlns="http://www.w3.org/2000/svg" xmlns:xlink="http://www.w3.org/1999/xlink" version="1.1">
<metadata>
Created by FontForge 20170731 at Tue Mar 12 18:34:47 2019
 By Aleksey,,,
Copyright (c) - ARABIC - Boutros International, 2019. Copyright (c) - LATIN - URW Type Foundry, 2019. All rights reserved.
</metadata>
<defs>
<font id="URWDINArabic-Light" horiz-adv-x="0" >
  <font-face 
    font-family="URW DIN Arabic Light"
    font-weight="300"
    font-stretch="normal"
    units-per-em="1000"
    panose-1="0 0 0 0 0 0 0 0 0 0"
    ascent="750"
    descent="-250"
    bbox="-130 -595 1407 1002"
    underline-thickness="46"
    underline-position="-217"
    unicode-range="U+0020-FEFC"
  />
<missing-glyph horiz-adv-x="200" 
d="M20 0v714h160v-714h-160zM160 20v674h-120v-674h120z" />
    <glyph glyph-name="uni067E0649" unicode="&#xfb58;&#xfef0;" horiz-adv-x="1048" 
d="M955 480v-278q0 -103 -54 -156q-47 -46 -128 -46h-101q0 -53 -29 -109q-34 -65 -96 -104q-74 -47 -177 -47q-146 0 -230 92q-75 83 -75 213q0 103 47 184l45 -30q-35 -71 -35 -147q0 -131 79 -201q66 -58 170 -58q124 0 194 85q21 25 33.5 55.5t12.5 54.5q0 12 -12 12
h-138v51h312q62 0 94 45q28 38 28 102v282h60zM826 -212h-54v95h54v-95zM956 -212h-54v95h54v-95zM889 -341h-51v83h51v-83z" />
    <glyph glyph-name="uni067E0649.fina" unicode="&#xfb59;&#xfef0;" horiz-adv-x="1063" 
d="M1079 0h-129q-51 0 -65 27q-42 -27 -104 -27h-109q0 -53 -29 -109q-34 -65 -96 -104q-74 -47 -177 -47q-146 0 -230 92q-75 83 -75 213q0 103 47 184l45 -30q-35 -71 -35 -147q0 -131 79 -201q66 -58 170 -58q124 0 194 85q21 25 33.5 55.5t12.5 54.5q0 12 -12 12h-138
v51h320q62 0 94 45q28 38 28 102v282h60v-278q0 -89 -45 -139q7 -12 32 -12h129v-51zM825 -117v-95h-54v95h54zM955 -117v-95h-54v95h54zM889 -341h-51v83h51v-83z" />
    <glyph glyph-name="uni067E064A" unicode="&#xfb58;&#xfef2;" horiz-adv-x="1048" 
d="M955 480v-278q0 -103 -54 -156q-47 -46 -128 -46h-101q0 -53 -29 -109q-34 -65 -96 -104q-74 -47 -177 -47q-146 0 -230 92q-75 83 -75 213q0 103 47 184l45 -30q-35 -71 -35 -147q0 -131 79 -201q66 -58 170 -58q124 0 194 85q21 25 33.5 55.5t12.5 54.5q0 12 -12 12
h-138v51h312q62 0 94 45q28 38 28 102v282h60zM826 -212h-54v95h54v-95zM956 -212h-54v95h54v-95zM889 -341h-51v83h51v-83zM329 -465h-54v95h54v-95zM459 -465h-54v95h54v-95z" />
    <glyph glyph-name="uni067E064A.fina" unicode="&#xfb59;&#xfef2;" horiz-adv-x="1063" 
d="M1079 0h-129q-51 0 -65 27q-42 -27 -104 -27h-109q0 -53 -29 -109q-34 -65 -96 -104q-74 -47 -177 -47q-146 0 -230 92q-75 83 -75 213q0 103 47 184l45 -30q-35 -71 -35 -147q0 -131 79 -201q66 -58 170 -58q124 0 194 85q21 25 33.5 55.5t12.5 54.5q0 12 -12 12h-138
v51h320q62 0 94 45q28 38 28 102v282h60v-278q0 -89 -45 -139q7 -12 32 -12h129v-51zM825 -117v-95h-54v95h54zM955 -117v-95h-54v95h54zM889 -341h-51v83h51v-83zM331 -465h-54v95h54v-95zM461 -465h-54v95h54v-95z" />
    <glyph glyph-name="uni067E0626" unicode="&#xfb58;&#xfe8a;" horiz-adv-x="1048" 
d="M220 343h-155v38h31q-14 16 -14 40q0 30 20 49.5t51 19.5q18 0 36.5 -10t24.5 -24l-31 -19l-1 1q-12 18 -31 18q-28 0 -28 -35q0 -17 12.5 -28.5t31.5 -11.5h53v-38zM955 480v-278q0 -103 -54 -156q-47 -46 -128 -46h-101q0 -53 -29 -109q-34 -65 -96 -104
q-74 -47 -177 -47q-146 0 -230 92q-75 83 -75 213q0 103 47 184l45 -30q-35 -71 -35 -147q0 -131 79 -201q66 -58 170 -58q124 0 194 85q21 25 33.5 55.5t12.5 54.5q0 12 -12 12h-138v51h312q62 0 94 45q28 38 28 102v282h60zM826 -212h-54v95h54v-95zM956 -212h-54v95h54
v-95zM889 -341h-51v83h51v-83z" />
    <glyph glyph-name="uni067E0626.fina" unicode="&#xfb59;&#xfe8a;" horiz-adv-x="1063" 
d="M220 343h-155v38h31q-14 16 -14 40q0 30 20 49.5t51 19.5q18 0 36.5 -10t24.5 -24l-31 -19l-1 1q-12 18 -31 18q-28 0 -28 -35q0 -17 12.5 -28.5t31.5 -11.5h53v-38zM1079 0h-129q-51 0 -65 27q-42 -27 -104 -27h-109q0 -53 -29 -109q-34 -65 -96 -104q-74 -47 -177 -47
q-146 0 -230 92q-75 83 -75 213q0 103 47 184l45 -30q-35 -71 -35 -147q0 -131 79 -201q66 -58 170 -58q124 0 194 85q21 25 33.5 55.5t12.5 54.5q0 12 -12 12h-138v51h320q62 0 94 45q28 38 28 102v282h60v-278q0 -89 -45 -139q7 -12 32 -12h129v-51zM825 -117v-95h-54v95
h54zM955 -117v-95h-54v95h54zM889 -341h-51v83h51v-83z" />
    <glyph glyph-name="uni06440671.fina" unicode="&#xfee0;&#xfb51;" horiz-adv-x="655" 
d="M271 836q40 0 62 -23q19 -19 19 -47q0 -35 -19.5 -55t-54.5 -20q-25 0 -63 19l-6 3q-28 12 -42 12q-18 0 -32 -26l-31 19q26 44 60 44q9 0 17 -2q12 36 36 56t54 20zM272 800q-15 0 -30.5 -14.5t-23.5 -35.5q40 -23 58 -23q16 0 25.5 9.5t9.5 25.5q0 38 -39 38zM563 714
v-512q0 -104 -53 -156q-47 -46 -129 -46h-323v51h143v515h60v-515h120q62 0 94 45q28 38 28 102v516h60z" />
    <glyph glyph-name="uni064A0626" unicode="&#xfef3;&#xfe8a;" horiz-adv-x="1048" 
d="M220 343h-155v38h31q-14 16 -14 40q0 30 20 49.5t51 19.5q18 0 36.5 -10t24.5 -24l-31 -19l-1 1q-12 18 -31 18q-28 0 -28 -35q0 -17 12.5 -28.5t31.5 -11.5h53v-38zM956 480v-278q0 -103 -54 -156q-47 -46 -128 -46h-102q0 -53 -29 -109q-34 -65 -96 -104
q-74 -47 -177 -47q-146 0 -230 92q-75 83 -75 213q0 103 47 184l45 -30q-35 -71 -35 -147q0 -131 79 -201q66 -58 170 -58q124 0 194 85q21 25 33.5 55.5t12.5 54.5q0 12 -12 12h-138v51h313q62 0 94 45q28 38 28 102v282h60zM772 -117h54v-95h-54v95zM902 -117h54v-95h-54
v95z" />
    <glyph glyph-name="uni064A0626.fina" unicode="&#xfef4;&#xfe8a;" horiz-adv-x="1063" 
d="M220 343h-155v38h31q-14 16 -14 40q0 30 20 49.5t51 19.5q18 0 36.5 -10t24.5 -24l-31 -19l-1 1q-12 18 -31 18q-28 0 -28 -35q0 -17 12.5 -28.5t31.5 -11.5h53v-38zM1079 0h-129q-51 0 -65 27q-42 -27 -104 -27h-109q0 -53 -29 -109q-34 -65 -96 -104q-74 -47 -177 -47
q-146 0 -230 92q-75 83 -75 213q0 103 47 184l45 -30q-35 -71 -35 -147q0 -131 79 -201q66 -58 170 -58q124 0 194 85q21 25 33.5 55.5t12.5 54.5q0 12 -12 12h-138v51h320q62 0 94 45q28 38 28 102v282h60v-278q0 -89 -45 -139q7 -12 32 -12h129v-51zM825 -117v-95h-54v95
h54zM955 -117v-95h-54v95h54z" />
    <glyph glyph-name="uniFC59" unicode="&#xfef3;&#xfef0;" horiz-adv-x="1048" arabic-form="isolated" 
d="M956 480v-278q0 -103 -54 -156q-47 -46 -128 -46h-102q0 -53 -29 -109q-34 -65 -96 -104q-74 -47 -177 -47q-146 0 -230 92q-75 83 -75 213q0 103 47 184l45 -30q-35 -71 -35 -147q0 -131 79 -201q66 -58 170 -58q124 0 194 85q21 25 33.5 55.5t12.5 54.5q0 12 -12 12
h-138v51h313q62 0 94 45q28 38 28 102v282h60zM772 -117h54v-95h-54v95zM902 -117h54v-95h-54v95z" />
    <glyph glyph-name="uniFC5A" unicode="&#xfef3;&#xfef2;" horiz-adv-x="1048" arabic-form="isolated" 
d="M956 480v-278q0 -103 -54 -156q-47 -46 -128 -46h-102q0 -53 -29 -109q-34 -65 -96 -104q-74 -47 -177 -47q-146 0 -230 92q-75 83 -75 213q0 103 47 184l45 -30q-35 -71 -35 -147q0 -131 79 -201q66 -58 170 -58q124 0 194 85q21 25 33.5 55.5t12.5 54.5q0 12 -12 12
h-138v51h313q62 0 94 45q28 38 28 102v282h60zM772 -117h54v-95h-54v95zM902 -117h54v-95h-54v95zM277 -370h54v-95h-54v95zM407 -370h54v-95h-54v95z" />
    <glyph glyph-name="uniFC95" unicode="&#xfef4;&#xfef0;" horiz-adv-x="1063" arabic-form="final" 
d="M1079 0h-129q-51 0 -65 27q-42 -27 -104 -27h-109q0 -53 -29 -109q-34 -65 -96 -104q-74 -47 -177 -47q-146 0 -230 92q-75 83 -75 213q0 103 47 184l45 -30q-35 -71 -35 -147q0 -131 79 -201q66 -58 170 -58q124 0 194 85q21 25 33.5 55.5t12.5 54.5q0 12 -12 12h-138
v51h320q62 0 94 45q28 38 28 102v282h60v-278q0 -89 -45 -139q7 -12 32 -12h129v-51zM825 -117v-95h-54v95h54zM955 -117v-95h-54v95h54z" />
    <glyph glyph-name="uniFC96" unicode="&#xfef4;&#xfef2;" horiz-adv-x="1063" arabic-form="final" 
d="M1079 0h-129q-51 0 -65 27q-42 -27 -104 -27h-109q0 -53 -29 -109q-34 -65 -96 -104q-74 -47 -177 -47q-146 0 -230 92q-75 83 -75 213q0 103 47 184l45 -30q-35 -71 -35 -147q0 -131 79 -201q66 -58 170 -58q124 0 194 85q21 25 33.5 55.5t12.5 54.5q0 12 -12 12h-138
v51h320q62 0 94 45q28 38 28 102v282h60v-278q0 -89 -45 -139q7 -12 32 -12h129v-51zM825 -117v-95h-54v95h54zM955 -117v-95h-54v95h54zM331 -465h-54v95h54v-95zM461 -465h-54v95h54v-95z" />
    <glyph glyph-name="uniFDF2" unicode="&#x627;&#xfedf;&#xfee0;&#xfeea;" horiz-adv-x="1224" arabic-form="isolated" 
d="M798 854h-40v148h40v-148zM906 787v-74q0 -75 -77 -75q-32 0 -51 17q-19 -17 -52 -17q-76 0 -76 75v74h40v-77q0 -34 34 -34t34 34v63h40v-63q0 -34 34 -34q33 0 33 34v77h41zM1132 520v-318q0 -104 -53 -156q-47 -46 -129 -46h-156q-51 0 -65 27q-40 -27 -104 -27h-46
q-100 0 -144 82q-27 -25 -73.5 -41.5t-90.5 -16.5q-191 0 -191 213v40q0 213 193 213q76 0 135 -32v50h60v-310q0 -71 34 -111q31 -36 81 -36h42q62 0 94 45q28 38 28 102v322h60v-318q0 -92 -42 -143q9 -8 30 -8h155q62 0 94 45q28 38 28 102v322h60zM273 75q39 0 78 16
t64 43q-7 29 -7 98v166q-47 41 -133 41q-135 0 -135 -158v-48q0 -85 37 -124q32 -34 96 -34z" />
    <glyph glyph-name="uniFEF5" unicode="&#xfedf;&#xfe82;" horiz-adv-x="655" arabic-form="isolated" 
d="M187 757q17 0 41 -13l6 -3q25 -14 37 -14q14 0 30 25l30 -19q-25 -44 -60 -44q-18 0 -52 20q-18 11 -30 11q-17 0 -31 -26l-31 19q27 44 60 44zM563 714v-512q0 -104 -53 -156q-47 -46 -129 -46h-323v51h143v515h60v-515h120q62 0 94 45q28 38 28 102v516h60z" />
    <glyph glyph-name="uniFEF6" unicode="&#xfee0;&#xfe82;" horiz-adv-x="663" arabic-form="final" 
d="M187 757q17 0 41 -13l6 -3q25 -14 37 -14q14 0 30 25l30 -19q-25 -44 -60 -44q-18 0 -52 20q-18 11 -30 11q-17 0 -31 -26l-31 19q27 44 60 44zM679 0h-129q-49 0 -65 26q-43 -26 -104 -26h-323v51h143v515h60v-515h120q62 0 94 45q28 38 28 102v516h60v-512
q0 -92 -45 -140q9 -11 32 -11h129v-51z" />
    <glyph glyph-name="uniFEF7" unicode="&#xfedf;&#xfe84;" horiz-adv-x="655" arabic-form="isolated" 
d="M306 690h-155v38h31q-14 16 -14 40q0 30 20 49.5t51 19.5q18 0 36.5 -10t24.5 -24l-31 -19l-1 1q-12 18 -31 18q-28 0 -28 -35q0 -17 12.5 -28.5t31.5 -11.5h53v-38zM563 714v-512q0 -104 -53 -156q-47 -46 -129 -46h-323v51h143v515h60v-515h120q62 0 94 45
q28 38 28 102v516h60z" />
    <glyph glyph-name="uniFEF8" unicode="&#xfee0;&#xfe84;" horiz-adv-x="663" arabic-form="final" 
d="M306 690h-155v38h31q-14 16 -14 40q0 30 20 49.5t51 19.5q18 0 36.5 -10t24.5 -24l-31 -19l-1 1q-12 18 -31 18q-28 0 -28 -35q0 -17 12.5 -28.5t31.5 -11.5h53v-38zM679 0h-129q-49 0 -65 26q-43 -26 -104 -26h-323v51h143v515h60v-515h120q62 0 94 45q28 38 28 102v516
h60v-512q0 -92 -45 -140q9 -11 32 -11h129v-51z" />
    <glyph glyph-name="uniFEF9" unicode="&#xfedf;&#xfe88;" horiz-adv-x="655" arabic-form="isolated" 
d="M563 714v-512q0 -104 -53 -156q-47 -46 -129 -46h-323v51h143v515h60v-515h120q62 0 94 45q28 38 28 102v516h60zM304 -263h-155v37h31q-14 17 -14 40q0 31 20 50.5t51 19.5q19 0 37 -10.5t24 -24.5l-31 -18q-12 18 -32 18q-28 0 -28 -35q0 -17 12 -28t32 -12h53v-37z
" />
    <glyph glyph-name="uniFEFA" unicode="&#xfee0;&#xfe88;" horiz-adv-x="663" arabic-form="final" 
d="M679 0h-129q-49 0 -65 26q-43 -26 -104 -26h-323v51h143v515h60v-515h120q62 0 94 45q28 38 28 102v516h60v-512q0 -92 -45 -140q9 -11 32 -11h129v-51zM304 -263h-155v37h31q-14 17 -14 40q0 31 20 50.5t51 19.5q19 0 37 -10.5t24 -24.5l-31 -18q-12 18 -32 18
q-28 0 -28 -35q0 -17 12 -28t32 -12h53v-37z" />
    <glyph glyph-name="uniFEFB" unicode="&#xfedf;&#xfe8e;" horiz-adv-x="655" arabic-form="isolated" 
d="M563 714v-512q0 -104 -53 -156q-47 -46 -129 -46h-323v51h143v515h60v-515h120q62 0 94 45q28 38 28 102v516h60z" />
    <glyph glyph-name="uniFEFC" unicode="&#xfee0;&#xfe8e;" horiz-adv-x="663" arabic-form="final" 
d="M679 0h-129q-49 0 -65 26q-43 -26 -104 -26h-323v51h143v515h60v-515h120q62 0 94 45q28 38 28 102v516h60v-512q0 -92 -45 -140q9 -11 32 -11h129v-51z" />
    <glyph glyph-name="uni066E.init" unicode="&#x66e;" horiz-adv-x="317" 
d="M225 480v-278q0 -104 -53 -156q-47 -46 -129 -46h-43v51h43q62 0 94 45q28 38 28 102v282h60z" />
    <glyph glyph-name="uni066E.medi" unicode="&#x66e;" horiz-adv-x="325" 
d="M341 0h-129q-50 0 -65 27q-42 -27 -104 -27h-43v51h43q62 0 94 45q28 38 28 102v282h60v-278q0 -91 -45 -139q8 -12 33 -12h128v-51z" />
    <glyph glyph-name="uni066E.fina" unicode="&#x66e;" horiz-adv-x="885" 
d="M901 0h-130q-48 0 -64 27q-40 -27 -104 -27h-325q-106 0 -166 75q-47 58 -47 137q0 126 76 212l43 -31q-63 -73 -63 -177q0 -73 47 -120q45 -45 119 -45h316q62 0 94 45q28 38 28 102v282h60v-278q0 -92 -45 -140q9 -11 32 -11h129v-51z" />
    <glyph glyph-name="uni06A1.init" unicode="&#x6a1;" horiz-adv-x="634" 
d="M361 491q104 0 151 -59q42 -53 42 -155v-63q0 -117 -54 -169q-47 -45 -139 -45h-361v51h226q-61 46 -61 163v63q0 117 56 169q48 45 140 45zM360 439q-74 0 -106 -44q-28 -38 -28 -114v-72q0 -86 36 -124q33 -34 98 -34q75 0 107 45q27 38 27 113v72q0 87 -36 124
q-32 34 -98 34z" />
    <glyph glyph-name="uni06A1.medi" unicode="&#x6a1;" horiz-adv-x="625" 
d="M342 491q102 0 155 -68q45 -58 45 -149q0 -78 -47 -147q-35 -52 -78 -76h224v-51h-234q-45 0 -65 12q-20 -12 -65 -12h-277v51h267q-51 28 -88 91q-37 64 -37 132q0 105 58 164q53 53 142 53zM342 439q-78 0 -115 -63q-26 -44 -26 -103q1 -67 45 -127q37 -51 96 -84
q68 38 106 98q34 54 35 113q0 70 -35 116q-37 50 -106 50z" />
    <glyph glyph-name="uni06A1.fina" unicode="&#x6a1;" horiz-adv-x="1015" 
d="M1030 0h-234q-45 0 -65 12q-20 -12 -65 -12h-388q-106 0 -166 75q-47 58 -47 137q0 126 76 212l43 -31q-63 -73 -63 -177q0 -73 47 -120q45 -45 119 -45h369q-51 28 -88 91q-37 64 -37 132q0 105 58 164q53 53 142 53q102 0 155 -68q45 -58 45 -149q0 -78 -47 -147
q-35 -52 -78 -76h224v-51zM731 439q-78 0 -115 -63q-26 -44 -26 -103q1 -67 45 -127q37 -51 96 -84q68 38 106 98q34 54 35 113q0 70 -35 116q-37 50 -106 50z" />
    <glyph glyph-name="uniFB51" unicode="&#x671;" horiz-adv-x="265" arabic-form="final" 
d="M165 914q40 0 62 -23q19 -19 19 -47q0 -35 -19.5 -55t-54.5 -20q-25 0 -63 19l-6 3q-28 12 -42 12q-18 0 -32 -26l-31 19q26 44 60 44q9 0 17 -2q12 36 36 56t54 20zM166 878q-15 0 -30.5 -14.5t-23.5 -35.5q40 -23 58 -23q16 0 25.5 9.5t9.5 25.5q0 38 -39 38zM152 658
v-460q0 -78 40 -116q33 -30 75 -31h18v-51h-22q-72 3 -119 47q-52 52 -52 155v456h60z" />
    <glyph glyph-name="uniFB57" unicode="&#x67e;" horiz-adv-x="885" arabic-form="final" 
d="M901 0h-130q-48 0 -64 27q-40 -27 -104 -27h-325q-106 0 -166 75q-47 58 -47 137q0 126 76 212l43 -31q-63 -73 -63 -177q0 -73 47 -120q45 -45 119 -45h316q62 0 94 45q28 38 28 102v282h60v-278q0 -92 -45 -140q9 -11 32 -11h129v-51zM393 -212h-54v95h54v-95z
M523 -212h-54v95h54v-95zM456 -341h-51v83h51v-83z" />
    <glyph glyph-name="uniFB58" unicode="&#x67e;" horiz-adv-x="317" arabic-form="initial" 
d="M225 480v-278q0 -104 -53 -156q-47 -46 -129 -46h-43v51h43q62 0 94 45q28 38 28 102v282h60zM96 -212h-54v95h54v-95zM226 -212h-54v95h54v-95zM159 -341h-51v83h51v-83z" />
    <glyph glyph-name="uniFB59" unicode="&#x67e;" horiz-adv-x="325" arabic-form="medial" 
d="M341 0h-129q-50 0 -65 27q-42 -27 -104 -27h-43v51h43q62 0 94 45q28 38 28 102v282h60v-278q0 -91 -45 -139q8 -12 33 -12h128v-51zM88 -212h-54v95h54v-95zM218 -212h-54v95h54v-95zM151 -341h-51v83h51v-83z" />
    <glyph glyph-name="uniFB67" unicode="&#x679;" horiz-adv-x="885" arabic-form="final" 
d="M405 727v-72q26 33 69 33q48 0 68 -33q12 -20 12 -45q0 -69 -74 -69h-146v37h31l-1 149h41zM476 653q-25 0 -45 -21t-27 -54h82q12 0 19.5 9.5t7.5 24.5q0 19 -10 30t-27 11zM901 0h-130q-48 0 -64 27q-40 -27 -104 -27h-325q-106 0 -166 75q-47 58 -47 137q0 126 76 212
l43 -31q-63 -73 -63 -177q0 -73 47 -120q45 -45 119 -45h316q62 0 94 45q28 38 28 102v282h60v-278q0 -92 -45 -140q9 -11 32 -11h129v-51z" />
    <glyph glyph-name="uniFB68" unicode="&#x679;" horiz-adv-x="317" arabic-form="initial" 
d="M153 790v-72q26 33 69 33q48 0 68 -33q12 -19 12 -44q0 -70 -74 -70h-146v37h31l-1 149h41zM225 717q-25 0 -45 -21t-27 -55h82q11 0 19 10t8 24q0 19 -10 30.5t-27 11.5zM225 480v-278q0 -104 -53 -156q-47 -46 -129 -46h-43v51h43q62 0 94 45q28 38 28 102v282h60z" />
    <glyph glyph-name="uniFB69" unicode="&#x679;" horiz-adv-x="325" arabic-form="medial" 
d="M153 790v-72q26 33 69 33q48 0 68 -33q12 -19 12 -44q0 -70 -74 -70h-146v37h31l-1 149h41zM225 717q-25 0 -45 -21t-27 -55h82q11 0 19 10t8 24q0 19 -10 30.5t-27 11.5zM341 0h-129q-50 0 -65 27q-42 -27 -104 -27h-43v51h43q62 0 94 45q28 38 28 102v282h60v-278
q0 -91 -45 -139q8 -12 33 -12h128v-51z" />
    <glyph glyph-name="uniFB6B" unicode="&#x6a4;" horiz-adv-x="1015" arabic-form="final" 
d="M756 745h-51v83h51v-83zM693 604h-54v95h54v-95zM823 604h-54v95h54v-95zM1030 0h-234q-45 0 -65 12q-20 -12 -65 -12h-388q-106 0 -166 75q-47 58 -47 137q0 126 76 212l43 -31q-63 -73 -63 -177q0 -73 47 -120q45 -45 119 -45h369q-51 28 -88 91q-37 64 -37 132
q0 105 58 164q53 53 142 53q102 0 155 -68q45 -58 45 -149q0 -78 -47 -147q-35 -52 -78 -76h224v-51zM731 439q-78 0 -115 -63q-26 -44 -26 -103q1 -67 45 -127q37 -51 96 -84q68 38 106 98q34 54 35 113q0 70 -35 116q-37 50 -106 50z" />
    <glyph glyph-name="uniFB6C" unicode="&#x6a4;" horiz-adv-x="634" arabic-form="initial" 
d="M385 745h-51v83h51v-83zM322 604h-54v95h54v-95zM452 604h-54v95h54v-95zM361 491q104 0 151 -59q42 -53 42 -155v-63q0 -117 -54 -169q-47 -45 -139 -45h-361v51h226q-61 46 -61 163v63q0 117 56 169q48 45 140 45zM360 439q-74 0 -106 -44q-28 -38 -28 -114v-72
q0 -86 36 -124q33 -34 98 -34q75 0 107 45q27 38 27 113v72q0 87 -36 124q-32 34 -98 34z" />
    <glyph glyph-name="uniFB6D" unicode="&#x6a4;" horiz-adv-x="625" arabic-form="medial" 
d="M367 745h-51v83h51v-83zM304 604h-54v95h54v-95zM434 604h-54v95h54v-95zM342 491q102 0 155 -68q45 -58 45 -149q0 -78 -47 -147q-35 -52 -78 -76h224v-51h-234q-45 0 -65 12q-20 -12 -65 -12h-277v51h267q-51 28 -88 91q-37 64 -37 132q0 105 58 164q53 53 142 53z
M342 439q-78 0 -115 -63q-26 -44 -26 -103q1 -67 45 -127q37 -51 96 -84q68 38 106 98q34 54 35 113q0 70 -35 116q-37 50 -106 50z" />
    <glyph glyph-name="uniFB7B" unicode="&#x686;" horiz-adv-x="644" arabic-form="final" 
d="M293 491q136 0 190 -101q19 -34 26 -64.5t15 -114.5q8 -72 26 -110q13 -29 30 -39.5t48 -10.5h32v-51h-299q-72 0 -120 -15q-60 -18 -93 -66q-29 -42 -29 -94q0 -76 56 -128q42 -39 95 -47q1 0 7 -1q10 -1 17 -1l23 -49q-8 -1 -23 -1q-18 0 -46 4q-84 16 -137 75
q-53 58 -53 144q0 74 38 128q37 53 106 80q53 19 141 22h167q-26 29 -37 91q-3 17 -12 92q-11 89 -33 130q-38 75 -136 75q-74 0 -132 -72l-47 29q30 44 78 70q48 25 102 25zM387 -202h-45v86h45v-86zM505 -202h-45v86h45v-86zM445 -321h-43v75h43v-75z" />
    <glyph glyph-name="uniFB7C" unicode="&#x686;" horiz-adv-x="691" arabic-form="initial" 
d="M297 491q134 0 190 -101q19 -34 26 -65.5t15 -113.5q7 -72 25 -110q14 -29 30.5 -39.5t48.5 -10.5h1v-51h-633v51h514q-26 29 -38 91q-3 19 -12 92q-11 89 -32 130q-18 36 -53.5 55.5t-82.5 19.5q-73 0 -133 -72l-47 29q30 44 78 70q48 25 103 25zM269 -212h-54v95h54
v-95zM399 -212h-54v95h54v-95zM332 -341h-51v83h51v-83z" />
    <glyph glyph-name="uniFB7D" unicode="&#x686;" horiz-adv-x="643" arabic-form="medial" 
d="M297 491q134 0 190 -101q19 -34 26 -65.5t15 -113.5q7 -72 25 -110q14 -29 30.5 -39.5t48.5 -10.5h28v-51h-660v51h514q-26 29 -38 91q-3 19 -12 92q-11 89 -32 130q-18 36 -53.5 55.5t-82.5 19.5q-73 0 -133 -72l-47 29q30 44 78 70q48 25 103 25zM269 -212h-54v95h54
v-95zM399 -212h-54v95h54v-95zM332 -341h-51v83h51v-83z" />
    <glyph glyph-name="uniFB89" unicode="&#x688;" horiz-adv-x="523" arabic-form="final" 
d="M237 789v-72q26 33 69 33q48 0 68 -33q12 -19 12 -44q0 -70 -74 -70h-146v38h31l-1 148h41zM308 716q-25 0 -45 -21t-27 -54h82q12 0 19.5 9.5t7.5 23.5q0 19 -10 30.5t-27 11.5zM539 0h-111q-51 0 -65 27q-43 -27 -114 -27h-191v51h191q133 0 133 155q0 115 -67 176
q-48 43 -136 61l25 48q238 -44 238 -283q0 -100 -45 -146q7 -11 32 -11h110v-51z" />
    <glyph glyph-name="uniFB8B" unicode="&#x698;" horiz-adv-x="345" arabic-form="final" 
d="M240 746h-51v83h51v-83zM177 605h-54v95h54v-95zM307 605h-54v95h54v-95zM245 480v-419q8 -10 30 -10h86v-51h-86q-15 0 -30 5v-5q-1 -76 -8 -117t-25 -70q-40 -73 -144 -73q-61 0 -105 22l20 48q34 -17 78 -17q71 0 97.5 46.5t26.5 169.5v471h60z" />
    <glyph glyph-name="uniFB8D" unicode="&#x691;" horiz-adv-x="345" arabic-form="final" 
d="M174 790v-72q26 33 69 33q48 0 68 -33q12 -19 12 -44q0 -70 -74 -70h-146v37h31l-1 149h41zM245 717q-25 0 -45 -21t-27 -55h82q11 0 19 10t8 24q0 19 -10 30.5t-27 11.5zM245 480v-419q8 -10 30 -10h86v-51h-86q-15 0 -30 5v-5q-1 -76 -8 -117t-25 -70q-40 -73 -144 -73
q-61 0 -105 22l20 48q34 -17 78 -17q71 0 97.5 46.5t26.5 169.5v471h60z" />
    <glyph glyph-name="uniFB8F" unicode="&#x6a9;" horiz-adv-x="885" arabic-form="final" 
d="M901 0h-129q-50 0 -64 27q-42 -27 -105 -27h-325q-106 0 -166 75q-47 58 -47 137q0 126 76 212l43 -31q-63 -73 -63 -177q1 -73 47 -120q46 -45 119 -45h316q62 0 94 45q28 38 28 102v84q0 73 -36 112q-32 34 -86 34h-205v23q0 30 36 72l157 191h69l-192 -234h135
q93 0 141 -60q41 -52 41 -142v-76q0 -92 -45 -140q9 -11 32 -11h129v-51z" />
    <glyph glyph-name="uniFB90" unicode="&#x6a9;" horiz-adv-x="590" arabic-form="initial" 
d="M193 480h134q94 0 141 -60q42 -52 42 -142v-76q0 -103 -54 -156q-47 -46 -129 -46h-327v51h327q63 0 95 45q28 38 28 102v84q0 73 -36 112q-32 34 -87 34h-205v24q0 18 6.5 30.5t29.5 40.5l157 191h70z" />
    <glyph glyph-name="uniFB91" unicode="&#x6a9;" horiz-adv-x="609" arabic-form="medial" 
d="M626 0h-129q-51 0 -66 27q-40 -27 -104 -27h-327v51h327q63 0 95 45q28 38 28 102v84q0 73 -36 112q-32 34 -87 34h-205v24q0 18 6.5 30.5t29.5 40.5l157 191h70l-192 -234h134q94 0 141 -60q42 -52 42 -142v-76q0 -89 -45 -139q7 -12 32 -12h129v-51z" />
    <glyph glyph-name="uniFB93" unicode="&#x6af;" horiz-adv-x="993" arabic-form="final" 
d="M1009 0h-129q-50 0 -64 27q-42 -27 -105 -27h-433q-106 0 -166 75q-47 58 -47 137q0 125 78 212l43 -31q-64 -71 -64 -176q0 -73 47 -120q45 -46 118 -46h424q62 0 94 45q28 38 28 102v84q0 73 -36 112q-32 34 -86 34h-206v24q0 17 5.5 28t26.5 37q3 4 5 6l157 191h69
l-192 -234h135q93 0 141 -60q41 -52 41 -142v-76q0 -91 -45 -140q9 -11 32 -11h129v-51zM320 480l192 234h51l-193 -234h-50z" />
    <glyph glyph-name="uniFB94" unicode="&#x6af;" horiz-adv-x="780" arabic-form="initial" 
d="M383 480h134q94 0 141 -60q42 -52 42 -142v-76q0 -103 -54 -156q-47 -46 -129 -46h-517v51h517q62 0 95 45q27 38 27 102v84q0 73 -36 112q-31 34 -86 34h-205v24q0 18 5.5 29.5t30.5 41.5l157 191h70zM176 480h-50l192 234h51z" />
    <glyph glyph-name="uniFB95" unicode="&#x6af;" horiz-adv-x="799" arabic-form="medial" 
d="M815 0h-129q-50 0 -65 27q-42 -27 -104 -27h-517v51h517q62 0 95 45q27 38 27 102v84q0 73 -36 112q-31 34 -86 34h-205v24q0 18 5.5 29.5t30.5 41.5l157 191h70l-192 -234h134q94 0 141 -60q42 -52 42 -142v-76q0 -91 -46 -140q9 -11 33 -11h128v-51zM126 480l192 234
h51l-193 -234h-50z" />
    <glyph glyph-name="uniFB9F" unicode="&#x6ba;" horiz-adv-x="743" arabic-form="final" 
d="M642 480v-419q9 -10 31 -10h85v-51h-84q-19 0 -33 6q-11 -138 -95 -207q-71 -59 -189 -59q-76 0 -141 34q-68 35 -107 100q-43 71 -43 165q0 66 21 130.5t58 109.5l44 -30q-31 -41 -49 -95.5t-18 -109.5q0 -128 83 -197q64 -54 153 -54q110 0 169 69q55 63 55 176v442h60
z" />
    <glyph glyph-name="uniFBA7" unicode="&#x6c1;" horiz-adv-x="869" arabic-form="final" 
d="M566 491q104 0 151 -59q42 -53 42 -155v-79q-2 -63 32 -107q30 -40 78 -40h15v-51h-19q-86 4 -130 67q-36 52 -36 135v79q0 87 -36 124q-32 34 -98 34q-74 0 -106 -44q-28 -38 -28 -114v-72q0 -86 36 -124q33 -34 98 -34v-51h-287q-107 0 -166 74q-47 58 -47 137
q0 127 76 213l43 -31q-29 -32 -46 -79.5t-17 -96.5q0 -71 47 -119q45 -47 119 -47h142q-59 46 -59 163v63q0 117 56 169q48 45 140 45z" />
    <glyph glyph-name="uniFBA8" unicode="&#x6c1;" horiz-adv-x="367" arabic-form="initial" 
d="M275 480v-278q0 -128 -80 -177l-115 -141h15v-96h-60v96l78 116h-113v51h93q62 0 94 45q28 38 28 102v282h60z" />
    <glyph glyph-name="uniFBA9" unicode="&#x6c1;" horiz-adv-x="527" arabic-form="medial" 
d="M115 78q5 0 5 -6q0 -2 -1 -5q-16 -55 -16 -116q0 -79 37 -120q34 -38 95 -38q140 0 142 196q0 30 9 43q14 19 52 19h105v-51h-92q-17 0 -17 -15q0 -245 -201 -245q-105 0 -152 74q-35 55 -35 143q0 18 4 46q-16 -3 -50 -3v51h20q30 0 46 4.5t41 19.5q5 3 8 3z" />
    <glyph glyph-name="uniFBAB" unicode="&#x6be;" horiz-adv-x="868" arabic-form="final" 
d="M884 0h-111q-51 0 -64 26q-43 -26 -103 -26h-196h-4q-42 0 -65 13q-21 -13 -69 -13h-214v51h202q-33 16 -57 61t-24 89q0 82 44 133t117 51q83 0 127 -65q33 -49 33 -119q0 -50 -29 -98q-24 -38 -52 -52h186q62 0 95 46q28 38 28 102q0 114 -62 180q-56 60 -150 60
q-105 0 -197 -46l25 58q81 40 174 40q127 -1 200 -82q70 -78 70 -212q0 -88 -43 -139q9 -7 29 -7h110v-51zM340 59q53 12 84 59q25 39 25 86q0 57 -28 95q-29 40 -81 40q-60 0 -89 -51q-21 -36 -21 -84q0 -54 33 -96q30 -38 77 -49z" />
    <glyph glyph-name="uniFBAC" unicode="&#x6be;" horiz-adv-x="795" arabic-form="initial" 
d="M460 491q127 -1 200 -82q70 -78 70 -212q0 -101 -56 -153q-47 -44 -126 -44h-196h-4q-42 0 -65 13q-21 -13 -69 -13h-214v51h202q-33 16 -57 61t-24 89q0 82 44 133t117 51q83 0 127 -65q33 -49 33 -119q0 -50 -29 -98q-24 -38 -52 -52h186q62 0 95 46q28 38 28 102
q0 114 -62 180q-56 60 -150 60q-105 0 -197 -46l25 58q81 40 174 40zM282 339q-60 0 -89 -51q-21 -36 -21 -84q0 -54 33 -96q30 -38 77 -49q53 12 84 59q25 39 25 86q0 57 -28 95q-29 40 -81 40z" />
    <glyph glyph-name="uniFBAD" unicode="&#x6be;" horiz-adv-x="811" arabic-form="medial" 
d="M826 0h-111q-51 0 -64 26q-43 -26 -103 -26h-196h-4q-42 0 -65 13q-21 -13 -69 -13h-214v51h202q-33 16 -57 61t-24 89q0 82 44 133t117 51q83 0 127 -65q33 -49 33 -119q0 -50 -29 -98q-24 -38 -52 -52h186q62 0 95 46q28 38 28 102q0 114 -62 180q-56 60 -150 60
q-105 0 -197 -46l25 58q81 40 174 40q127 -1 200 -82q70 -78 70 -212q0 -88 -43 -139q9 -7 29 -7h110v-51zM282 59q53 12 84 59q25 39 25 86q0 57 -28 95q-29 40 -81 40q-60 0 -89 -51q-21 -36 -21 -84q0 -54 33 -96q30 -38 77 -49z" />
    <glyph glyph-name="uniFBAF" unicode="&#x6d2;" horiz-adv-x="579" arabic-form="final" 
d="M596 0h-235q-72 0 -120 -15q-60 -18 -93 -66q-29 -42 -29 -94q0 -81 60 -131q44 -38 104 -46q21 -3 45 -3q94 0 186 49l22 -46q-95 -56 -210 -56q-26 0 -36 1q-101 9 -166 70q-66 62 -66 158q0 74 38 128q37 53 106 80q53 19 141 22h253v-51z" />
    <glyph glyph-name="uniFBB1" unicode="&#x6d3;" horiz-adv-x="579" arabic-form="final" 
d="M360 175h-155v38h31q-14 16 -14 40q0 30 20 49.5t51 19.5q18 0 36.5 -10t24.5 -24l-31 -19l-1 1q-12 18 -31 18q-28 0 -28 -35q0 -17 12.5 -28.5t31.5 -11.5h53v-38zM596 0h-235q-72 0 -120 -15q-60 -18 -93 -66q-29 -42 -29 -94q0 -81 60 -131q44 -38 104 -46
q21 -3 45 -3q94 0 186 49l22 -46q-95 -56 -210 -56q-26 0 -36 1q-101 9 -166 70q-66 62 -66 158q0 74 38 128q37 53 106 80q53 19 141 22h253v-51z" />
    <glyph glyph-name="uniFBFD" unicode="&#x6cc;" horiz-adv-x="690" arabic-form="final" 
d="M706 0h-34q0 -53 -29 -109q-34 -65 -96 -104q-74 -47 -177 -47q-146 0 -230 92q-75 83 -75 213q0 103 47 184l45 -30q-35 -71 -35 -147q0 -131 79 -201q66 -58 170 -58q124 0 194 85q21 25 33.5 55.5t12.5 54.5q0 12 -12 12h-138v51h245v-51zM332 -466h-54v95h54v-95z
M462 -466h-54v95h54v-95zM395 -595h-51v83h51v-83z" />
    <glyph glyph-name="uniFBFE" unicode="&#x6cc;" horiz-adv-x="317" arabic-form="initial" 
d="M225 480v-278q0 -104 -53 -156q-47 -46 -129 -46h-43v51h43q62 0 94 45q28 38 28 102v282h60zM96 -212h-54v95h54v-95zM226 -212h-54v95h54v-95zM159 -341h-51v83h51v-83z" />
    <glyph glyph-name="uniFBFF" unicode="&#x6cc;" horiz-adv-x="325" arabic-form="medial" 
d="M341 0h-129q-50 0 -65 27q-42 -27 -104 -27h-43v51h43q62 0 94 45q28 38 28 102v282h60v-278q0 -91 -45 -139q8 -12 33 -12h128v-51zM88 -212h-54v95h54v-95zM218 -212h-54v95h54v-95zM151 -341h-51v83h51v-83z" />
    <glyph glyph-name="uniFC5E" unicode="&#xfc5e;" arabic-form="isolated" 
d="M53 964q32 0 53.5 -22t21.5 -55q0 -45 -30 -71q-26 -24 -68 -24q-55 0 -88 20q-7 4 -14 10q-4 3 -5 3q-2 0 -5 -4l-14 -20l-31 20l27 37q7 9 15 9q5 0 15 -8h1q41 -33 76 -34q-27 23 -27 64q0 33 20.5 54t52.5 21zM52 929q-14 0 -23.5 -11.5t-10.5 -29.5q0 -40 36 -58
q14 5 24 20.5t11 34.5q0 19 -10.5 31.5t-26.5 12.5zM128 716v-74q0 -75 -77 -75q-32 0 -51 17q-19 -17 -52 -17q-76 0 -76 75v74h40v-77q0 -34 34 -34t34 34v63h40v-63q0 -34 34 -34q33 0 33 34v77h41z" />
    <glyph glyph-name="uniFC5F" unicode="&#xfc5f;" arabic-form="isolated" 
d="M130 941v-74q0 -75 -77 -75q-32 0 -51 17q-19 -17 -52 -17q-76 0 -76 75v74h40v-77q0 -34 34 -34t34 34v63h40v-63q0 -34 34 -34q33 0 33 34v77h41zM78 671h-155v37h155v-37zM78 563h-155v38h155v-38z" />
    <glyph glyph-name="uniFC60" unicode="&#xfc60;" arabic-form="isolated" 
d="M78 796h-155v37h155v-37zM130 717v-74q0 -75 -77 -75q-32 0 -51 17q-19 -17 -52 -17q-76 0 -76 75v74h40v-77q0 -34 34 -34t34 34v63h40v-63q0 -34 34 -34q33 0 33 34v77h41z" />
    <glyph glyph-name="uniFC61" unicode="&#xfc61;" arabic-form="isolated" 
d="M34 991q33 0 54 -22t21 -55q0 -36 -19.5 -56.5t-72.5 -38.5q-8 -3 -25 -9q-54 -18 -89 -26l-15 30q62 16 105 35q-33 22 -33 67q0 31 21.5 53t52.5 22zM32 863q15 3 26 17t12 32q0 20 -10 32.5t-26 12.5q-14 0 -23.5 -11.5t-10.5 -29.5q0 -37 32 -53zM128 716v-74
q0 -75 -77 -75q-32 0 -51 17q-19 -17 -52 -17q-76 0 -76 75v74h40v-77q0 -34 34 -34t34 34v63h40v-63q0 -34 34 -34q33 0 33 34v77h41z" />
    <glyph glyph-name="uniFC62" unicode="&#xfc62;" arabic-form="isolated" 
d="M129 805v-74q0 -75 -77 -75q-32 0 -51 17q-19 -17 -52 -17q-76 0 -76 75v74h40v-77q0 -34 34 -34t34 34v63h40v-63q0 -34 34 -34q33 0 33 34v77h41zM77 564h-155v37h155v-37z" />
    <glyph glyph-name="uniFC63" unicode="&#xfc63;" arabic-form="isolated" 
d="M18 785h-40v148h40v-148zM126 718v-74q0 -75 -77 -75q-32 0 -51 17q-19 -17 -52 -17q-76 0 -76 75v74h40v-77q0 -34 34 -34t34 34v63h40v-63q0 -34 34 -34q33 0 33 34v77h41z" />
    <glyph glyph-name="uniFE82" unicode="&#x622;" horiz-adv-x="265" arabic-form="final" 
d="M76 840q17 0 41 -13l6 -3q25 -14 37 -14q14 0 30 25l30 -19q-25 -44 -60 -44q-18 0 -52 20q-18 11 -30 11q-17 0 -31 -26l-31 19q27 44 60 44zM152 658v-460q0 -78 40 -116q33 -30 75 -31h18v-51h-22q-75 3 -120 46q-51 53 -51 156v456h60z" />
    <glyph glyph-name="uniFE84" unicode="&#x623;" horiz-adv-x="265" arabic-form="final" 
d="M198 773h-155v38h31q-14 16 -14 40q0 30 20 49.5t51 19.5q18 0 36.5 -10t24.5 -24l-31 -19l-1 1q-12 18 -31 18q-28 0 -28 -35q0 -17 12.5 -28.5t31.5 -11.5h53v-38zM152 658v-460q0 -78 40 -116q33 -30 75 -31h18v-51h-22q-72 3 -119 47q-52 52 -52 155v456h60z" />
    <glyph glyph-name="uniFE86" unicode="&#x624;" horiz-adv-x="568" arabic-form="final" 
d="M348 604h-155v38h31q-14 16 -14 40q0 30 20 49.5t51 19.5q18 0 36.5 -10t24.5 -24l-31 -19l-1 1q-12 18 -31 18q-28 0 -28 -35q0 -17 12.5 -28.5t31.5 -11.5h53v-38zM275 491q105 0 152 -59q41 -52 41 -155v-226h116v-51h-116v-35q-1 -118 -62 -176q-52 -49 -146 -49
q-83 0 -155 38l21 48q58 -33 128 -33q154 0 154 167v40h-137q-191 0 -191 214v63q0 117 55 169q48 45 140 45zM274 439q-74 0 -106 -44q-28 -38 -28 -114v-72q0 -86 36 -124q33 -34 98 -34h134v230q0 87 -35 124q-33 34 -99 34z" />
    <glyph glyph-name="uniFE88" unicode="&#x625;" horiz-adv-x="265" arabic-form="final" 
d="M152 714v-516q0 -71 35 -111q30 -36 80 -36h14v-51h-18q-85 0 -131 62q-40 53 -40 140v512h60zM173 -226h-155v37h31q-14 17 -14 40q0 31 20 50.5t51 19.5q19 0 37 -10.5t24 -24.5l-31 -18q-12 18 -32 18q-28 0 -28 -35q0 -17 12 -28t32 -12h53v-37z" />
    <glyph glyph-name="uniFE8A" unicode="&#x626;" horiz-adv-x="690" arabic-form="final" 
d="M220 343h-155v38h31q-14 16 -14 40q0 30 20 49.5t51 19.5q18 0 36.5 -10t24.5 -24l-31 -19l-1 1q-12 18 -31 18q-28 0 -28 -35q0 -17 12.5 -28.5t31.5 -11.5h53v-38zM706 0h-34q0 -53 -29 -109q-34 -65 -96 -104q-74 -47 -177 -47q-146 0 -230 92q-75 83 -75 213
q0 103 47 184l45 -30q-35 -71 -35 -147q0 -131 79 -201q66 -58 170 -58q124 0 194 85q21 25 33.5 55.5t12.5 54.5q0 12 -12 12h-138v51h245v-51z" />
    <glyph glyph-name="uniFE8B" unicode="&#x626;" horiz-adv-x="317" arabic-form="initial" 
d="M272 603h-155v38h31q-14 16 -14 40q0 30 20 49.5t51 19.5q18 0 36.5 -10t24.5 -24l-31 -19l-1 1q-12 18 -31 18q-28 0 -28 -35q0 -17 12.5 -28.5t31.5 -11.5h53v-38zM225 480v-278q0 -104 -53 -156q-47 -46 -129 -46h-43v51h43q62 0 94 45q28 38 28 102v282h60z" />
    <glyph glyph-name="uniFE8C" unicode="&#x626;" horiz-adv-x="325" arabic-form="medial" 
d="M272 603h-155v38h31q-14 16 -14 40q0 30 20 49.5t51 19.5q18 0 36.5 -10t24.5 -24l-31 -19l-1 1q-12 18 -31 18q-28 0 -28 -35q0 -17 12.5 -28.5t31.5 -11.5h53v-38zM341 0h-129q-50 0 -65 27q-42 -27 -104 -27h-43v51h43q62 0 94 45q28 38 28 102v282h60v-278
q0 -91 -45 -139q8 -12 33 -12h128v-51z" />
    <glyph glyph-name="uniFE8E" unicode="&#x627;" horiz-adv-x="265" arabic-form="final" 
d="M152 714v-516q0 -71 35 -111q30 -36 80 -36h14v-51h-18q-85 0 -131 62q-40 53 -40 140v512h60z" />
    <glyph glyph-name="uniFE90" unicode="&#x628;" horiz-adv-x="885" arabic-form="final" 
d="M901 0h-130q-48 0 -64 27q-40 -27 -104 -27h-325q-106 0 -166 75q-47 58 -47 137q0 126 76 212l43 -31q-63 -73 -63 -177q0 -73 47 -120q45 -45 119 -45h316q62 0 94 45q28 38 28 102v282h60v-278q0 -92 -45 -140q9 -11 32 -11h129v-51zM458 -212h-60v96h60v-96z" />
    <glyph glyph-name="uniFE91" unicode="&#x628;" horiz-adv-x="317" arabic-form="initial" 
d="M225 480v-278q0 -104 -53 -156q-47 -46 -129 -46h-43v51h43q62 0 94 45q28 38 28 102v282h60zM151 -212h-60v96h60v-96z" />
    <glyph glyph-name="uniFE92" unicode="&#x628;" horiz-adv-x="325" arabic-form="medial" 
d="M341 0h-129q-50 0 -65 27q-42 -27 -104 -27h-43v51h43q62 0 94 45q28 38 28 102v282h60v-278q0 -91 -45 -139q8 -12 33 -12h128v-51zM161 -212h-60v96h60v-96z" />
    <glyph glyph-name="uniFE94" unicode="&#x629;" horiz-adv-x="579" arabic-form="final" 
d="M237 609h-54v95h54v-95zM367 609h-54v95h54v-95zM468 508v-310q0 -71 34 -111q31 -36 81 -36h14v-51h-18q-100 0 -144 82q-27 -25 -73.5 -41.5t-90.5 -16.5q-191 0 -191 213v40q0 213 193 213q76 0 135 -32v50h60zM275 439q-135 0 -135 -158v-48q0 -85 37 -124
q32 -34 96 -34q39 0 78 16t64 43q-7 29 -7 98v166q-47 41 -133 41z" />
    <glyph glyph-name="uniFE96" unicode="&#x62a;" horiz-adv-x="885" arabic-form="final" 
d="M405 540h-54v95h54v-95zM535 540h-54v95h54v-95zM901 0h-130q-48 0 -64 27q-40 -27 -104 -27h-325q-106 0 -166 75q-47 58 -47 137q0 126 76 212l43 -31q-63 -73 -63 -177q0 -73 47 -120q45 -45 119 -45h316q62 0 94 45q28 38 28 102v282h60v-278q0 -92 -45 -140
q9 -11 32 -11h129v-51z" />
    <glyph glyph-name="uniFE97" unicode="&#x62a;" horiz-adv-x="317" arabic-form="initial" 
d="M157 604h-54v95h54v-95zM287 604h-54v95h54v-95zM225 480v-278q0 -104 -53 -156q-47 -46 -129 -46h-43v51h43q62 0 94 45q28 38 28 102v282h60z" />
    <glyph glyph-name="uniFE98" unicode="&#x62a;" horiz-adv-x="325" arabic-form="medial" 
d="M158 604h-54v95h54v-95zM288 604h-54v95h54v-95zM341 0h-129q-50 0 -65 27q-42 -27 -104 -27h-43v51h43q62 0 94 45q28 38 28 102v282h60v-278q0 -91 -45 -139q8 -12 33 -12h128v-51z" />
    <glyph glyph-name="uniFE9A" unicode="&#x62b;" horiz-adv-x="885" arabic-form="final" 
d="M468 681h-51v83h51v-83zM405 540h-54v95h54v-95zM535 540h-54v95h54v-95zM901 0h-130q-48 0 -64 27q-40 -27 -104 -27h-325q-106 0 -166 75q-47 58 -47 137q0 126 76 212l43 -31q-63 -73 -63 -177q0 -73 47 -120q45 -45 119 -45h316q62 0 94 45q28 38 28 102v282h60v-278
q0 -92 -45 -140q9 -11 32 -11h129v-51z" />
    <glyph glyph-name="uniFE9B" unicode="&#x62b;" horiz-adv-x="317" arabic-form="initial" 
d="M220 745h-51v83h51v-83zM157 604h-54v95h54v-95zM287 604h-54v95h54v-95zM225 480v-278q0 -104 -53 -156q-47 -46 -129 -46h-43v51h43q62 0 94 45q28 38 28 102v282h60z" />
    <glyph glyph-name="uniFE9C" unicode="&#x62b;" horiz-adv-x="325" arabic-form="medial" 
d="M220 745h-51v83h51v-83zM157 604h-54v95h54v-95zM287 604h-54v95h54v-95zM341 0h-129q-50 0 -65 27q-42 -27 -104 -27h-43v51h43q62 0 94 45q28 38 28 102v282h60v-278q0 -91 -45 -139q8 -12 33 -12h128v-51z" />
    <glyph glyph-name="uniFE9E" unicode="&#x62c;" horiz-adv-x="640" arabic-form="final" 
d="M241 -15q-60 -18 -93 -66q-29 -42 -29 -94q0 -81 60 -131q44 -38 104 -46q21 -3 45 -3q94 0 186 49l22 -46q-95 -56 -210 -56q-26 0 -36 1q-101 9 -166 70q-66 62 -66 158q0 74 38 128q37 53 106 80q53 19 141 22h167q-26 29 -37 91q-3 17 -12 92q-11 89 -33 130
q-38 75 -136 75q-74 0 -132 -72l-47 29q30 44 78 70q48 25 102 25q136 0 190 -101q19 -34 26 -64.5t15 -114.5q8 -72 26 -110q13 -29 30 -39.5t48 -10.5h28v-51h-295q-72 0 -120 -15zM391 -212h-60v96h60v-96z" />
    <glyph glyph-name="uniFE9F" unicode="&#x62c;" horiz-adv-x="691" arabic-form="initial" 
d="M297 491q134 0 190 -101q19 -34 26 -65.5t15 -113.5q7 -72 25 -110q14 -29 30.5 -39.5t48.5 -10.5h1v-51h-633v51h514q-26 29 -38 91q-3 19 -12 92q-11 89 -32 130q-18 36 -53.5 55.5t-82.5 19.5q-73 0 -133 -72l-47 29q30 44 78 70q48 25 103 25zM331 -212h-60v96h60
v-96z" />
    <glyph glyph-name="uniFEA0" unicode="&#x62c;" horiz-adv-x="643" arabic-form="medial" 
d="M297 491q134 0 190 -101q19 -34 26 -65.5t15 -113.5q7 -72 25 -110q14 -29 30.5 -39.5t48.5 -10.5h28v-51h-660v51h514q-26 29 -38 91q-3 19 -12 92q-11 89 -32 130q-18 36 -53.5 55.5t-82.5 19.5q-73 0 -133 -72l-47 29q30 44 78 70q48 25 103 25zM331 -212h-60v96h60
v-96z" />
    <glyph glyph-name="uniFEA2" unicode="&#x62d;" horiz-adv-x="640" arabic-form="final" 
d="M241 -15q-60 -18 -93 -66q-29 -42 -29 -94q0 -81 60 -131q44 -38 104 -46q21 -3 45 -3q94 0 186 49l22 -46q-95 -56 -210 -56q-26 0 -36 1q-101 9 -166 70q-66 62 -66 158q0 74 38 128q37 53 106 80q53 19 141 22h167q-26 29 -37 91q-3 17 -12 92q-11 89 -33 130
q-38 75 -136 75q-74 0 -132 -72l-47 29q30 44 78 70q48 25 102 25q136 0 190 -101q19 -34 26 -64.5t15 -114.5q8 -72 26 -110q13 -29 30 -39.5t48 -10.5h28v-51h-295q-72 0 -120 -15z" />
    <glyph glyph-name="uniFEA3" unicode="&#x62d;" horiz-adv-x="691" arabic-form="initial" 
d="M297 491q134 0 190 -101q19 -34 26 -65.5t15 -113.5q7 -72 25 -110q14 -29 30.5 -39.5t48.5 -10.5h1v-51h-633v51h514q-26 29 -38 91q-3 19 -12 92q-11 89 -32 130q-18 36 -53.5 55.5t-82.5 19.5q-73 0 -133 -72l-47 29q30 44 78 70q48 25 103 25z" />
    <glyph glyph-name="uniFEA4" unicode="&#x62d;" horiz-adv-x="643" arabic-form="medial" 
d="M297 491q134 0 190 -101q19 -34 26 -65.5t15 -113.5q7 -72 25 -110q14 -29 30.5 -39.5t48.5 -10.5h28v-51h-660v51h514q-26 29 -38 91q-3 19 -12 92q-11 89 -32 130q-18 36 -53.5 55.5t-82.5 19.5q-73 0 -133 -72l-47 29q30 44 78 70q48 25 103 25z" />
    <glyph glyph-name="uniFEA6" unicode="&#x62e;" horiz-adv-x="640" arabic-form="final" 
d="M330 604h-60v95h60v-95zM241 -15q-60 -18 -93 -66q-29 -42 -29 -94q0 -81 60 -131q44 -38 104 -46q21 -3 45 -3q94 0 186 49l22 -46q-95 -56 -210 -56q-26 0 -36 1q-101 9 -166 70q-66 62 -66 158q0 74 38 128q37 53 106 80q53 19 141 22h167q-26 29 -37 91q-3 17 -12 92
q-11 89 -33 130q-38 75 -136 75q-74 0 -132 -72l-47 29q30 44 78 70q48 25 102 25q136 0 190 -101q19 -34 26 -64.5t15 -114.5q8 -72 26 -110q13 -29 30 -39.5t48 -10.5h28v-51h-295q-72 0 -120 -15z" />
    <glyph glyph-name="uniFEA7" unicode="&#x62e;" horiz-adv-x="691" arabic-form="initial" 
d="M333 604h-60v95h60v-95zM297 491q134 0 190 -101q19 -34 26 -65.5t15 -113.5q7 -72 25 -110q14 -29 30.5 -39.5t48.5 -10.5h1v-51h-633v51h514q-26 29 -38 91q-3 19 -12 92q-11 89 -32 130q-18 36 -53.5 55.5t-82.5 19.5q-73 0 -133 -72l-47 29q30 44 78 70q48 25 103 25
z" />
    <glyph glyph-name="uniFEA8" unicode="&#x62e;" horiz-adv-x="643" arabic-form="medial" 
d="M333 604h-60v95h60v-95zM297 491q134 0 190 -101q19 -34 26 -65.5t15 -113.5q7 -72 25 -110q14 -29 30.5 -39.5t48.5 -10.5h28v-51h-660v51h514q-26 29 -38 91q-3 19 -12 92q-11 89 -32 130q-18 36 -53.5 55.5t-82.5 19.5q-73 0 -133 -72l-47 29q30 44 78 70
q48 25 103 25z" />
    <glyph glyph-name="uniFEAA" unicode="&#x62f;" horiz-adv-x="523" arabic-form="final" 
d="M539 0h-111q-51 0 -65 27q-43 -27 -114 -27h-191v51h191q133 0 133 155q0 115 -67 176q-48 43 -136 61l25 48q238 -44 238 -283q0 -100 -45 -146q7 -11 32 -11h110v-51z" />
    <glyph glyph-name="uniFEAC" unicode="&#x630;" horiz-adv-x="523" arabic-form="final" 
d="M239 604h-60v95h60v-95zM539 0h-111q-51 0 -65 27q-43 -27 -114 -27h-191v51h191q133 0 133 155q0 115 -67 176q-48 43 -136 61l25 48q238 -44 238 -283q0 -100 -45 -146q7 -11 32 -11h110v-51z" />
    <glyph glyph-name="uniFEAE" unicode="&#x631;" horiz-adv-x="345" arabic-form="final" 
d="M245 480v-419q8 -10 30 -10h86v-51h-86q-15 0 -30 5v-5q-1 -76 -8 -117t-25 -70q-40 -73 -144 -73q-61 0 -105 22l20 48q34 -17 78 -17q71 0 97.5 46.5t26.5 169.5v471h60z" />
    <glyph glyph-name="uniFEB0" unicode="&#x632;" horiz-adv-x="345" arabic-form="final" 
d="M245 604h-60v95h60v-95zM245 480v-419q8 -10 30 -10h86v-51h-86q-15 0 -30 5v-5q-1 -76 -8 -117t-25 -70q-40 -73 -144 -73q-61 0 -105 22l20 48q34 -17 78 -17q71 0 97.5 46.5t26.5 169.5v471h60z" />
    <glyph glyph-name="uniFEB2" unicode="&#x633;" horiz-adv-x="1391" arabic-form="final" 
d="M1407 0h-164q-46 0 -62 25q-46 -34 -115 -34q-109 0 -151 82q-40 -82 -149 -82q-84 0 -124 54v-11q-3 -153 -88 -229q-73 -65 -197 -65q-76 0 -141 34q-68 35 -107 100q-43 71 -43 165q0 66 21 130.5t58 109.5l44 -30q-31 -41 -49 -95.5t-18 -109.5q0 -128 83 -197
q64 -54 153 -54q110 0 169 69q55 63 55 176v442h60v-293q0 -72 36 -111q32 -34 86 -34q62 0 94 44q27 38 27 101v293h60v-293q0 -73 35 -111q32 -34 86 -34q62 0 94 44q28 38 28 101v292h60v-288q0 -80 -34 -131q9 -9 30 -9h163v-51z" />
    <glyph glyph-name="uniFEB3" unicode="&#x633;" horiz-adv-x="986" arabic-form="initial" 
d="M894 479v-288q0 -103 -53 -155q-47 -45 -128 -45q-110 0 -150 84q-41 -84 -153 -84q-116 0 -156 90q-44 -81 -148 -81h-106v51h106q62 0 94 45q28 38 28 102v282h61v-293q0 -73 35 -111q32 -34 86 -34q62 0 94 44q27 38 27 101v293h60v-293q0 -73 36 -111q32 -34 86 -34
q62 0 94 44q27 38 27 101v292h60z" />
    <glyph glyph-name="uniFEB4" unicode="&#x633;" horiz-adv-x="1036" arabic-form="medial" 
d="M1052 0h-162q-49 0 -63 24q-43 -33 -114 -33q-110 0 -150 84q-41 -84 -153 -84q-116 0 -156 90q-44 -81 -148 -81h-106v51h106q62 0 94 45q28 38 28 102v282h61v-293q0 -73 35 -111q32 -34 86 -34q62 0 94 44q27 38 27 101v293h60v-293q0 -73 36 -111q32 -34 86 -34
q62 0 94 44q27 38 27 101v292h60v-288q0 -80 -34 -131q10 -9 31 -9h161v-51z" />
    <glyph glyph-name="uniFEB6" unicode="&#x634;" horiz-adv-x="1391" arabic-form="final" 
d="M940 745h-51v83h51v-83zM877 604h-54v95h54v-95zM1007 604h-54v95h54v-95zM1407 0h-164q-46 0 -62 25q-46 -34 -115 -34q-109 0 -151 82q-40 -82 -149 -82q-84 0 -124 54v-11q-3 -153 -88 -229q-73 -65 -197 -65q-76 0 -141 34q-68 35 -107 100q-43 71 -43 165
q0 66 21 130.5t58 109.5l44 -30q-31 -41 -49 -95.5t-18 -109.5q0 -128 83 -197q64 -54 153 -54q110 0 169 69q55 63 55 176v442h60v-293q0 -72 36 -111q32 -34 86 -34q62 0 94 44q27 38 27 101v293h60v-293q0 -73 35 -111q32 -34 86 -34q62 0 94 44q28 38 28 101v292h60
v-288q0 -80 -34 -131q9 -9 30 -9h163v-51z" />
    <glyph glyph-name="uniFEB7" unicode="&#x634;" horiz-adv-x="986" arabic-form="initial" 
d="M587 745h-51v83h51v-83zM524 604h-54v95h54v-95zM654 604h-54v95h54v-95zM894 479v-288q0 -103 -53 -155q-47 -45 -128 -45q-110 0 -150 84q-41 -84 -153 -84q-116 0 -156 90q-44 -81 -148 -81h-106v51h106q62 0 94 45q28 38 28 102v282h61v-293q0 -73 35 -111
q32 -34 86 -34q62 0 94 44q27 38 27 101v293h60v-293q0 -73 36 -111q32 -34 86 -34q62 0 94 44q27 38 27 101v292h60z" />
    <glyph glyph-name="uniFEB8" unicode="&#x634;" horiz-adv-x="1036" arabic-form="medial" 
d="M587 745h-51v83h51v-83zM524 604h-54v95h54v-95zM654 604h-54v95h54v-95zM1052 0h-162q-49 0 -63 24q-43 -33 -114 -33q-110 0 -150 84q-41 -84 -153 -84q-116 0 -156 90q-44 -81 -148 -81h-106v51h106q62 0 94 45q28 38 28 102v282h61v-293q0 -73 35 -111q32 -34 86 -34
q62 0 94 44q27 38 27 101v293h60v-293q0 -73 36 -111q32 -34 86 -34q62 0 94 44q27 38 27 101v292h60v-288q0 -80 -34 -131q10 -9 31 -9h161v-51z" />
    <glyph glyph-name="uniFEBA" unicode="&#x635;" horiz-adv-x="1296" arabic-form="final" 
d="M954 491q138 0 208 -99q53 -76 53 -189q0 -94 -46 -142q9 -10 32 -10h111v-51h-112q-49 0 -64 26q-40 -26 -103 -26h-393q-12 -135 -95 -202q-72 -58 -188 -58q-76 0 -141 34q-68 35 -107 100q-43 71 -43 165q0 66 21 130.5t58 109.5l44 -30q-31 -41 -49 -95.5
t-18 -109.5q0 -128 83 -197q64 -54 153 -54q110 0 169 69q55 63 55 176v442h60v-218q47 119 141 180q77 49 171 49zM950 439q-137 0 -226 -141q-68 -107 -82 -247h391q62 0 94 45q28 38 28 102q0 115 -59 180q-54 61 -146 61z" />
    <glyph glyph-name="uniFEBB" unicode="&#x635;" horiz-adv-x="864" arabic-form="initial" 
d="M537 491q138 0 208 -99q53 -76 53 -189q0 -106 -55 -159q-47 -44 -127 -44h-392l1 -73h-60l1 73h-166v51h165v429h59v-218q47 120 141 180q77 49 172 49zM532 439q-137 0 -226 -141q-68 -107 -82 -247h391q62 0 94 45q28 38 28 102q0 115 -59 180q-54 61 -146 61z" />
    <glyph glyph-name="uniFEBC" unicode="&#x635;" horiz-adv-x="879" arabic-form="medial" 
d="M537 491q138 0 208 -99q53 -76 53 -189q0 -94 -45 -142q9 -10 31 -10h111v-51h-111q-50 0 -65 26q-40 -26 -103 -26h-392l1 -73h-60l1 73h-166v51h165v429h59v-218q47 120 141 180q77 49 172 49zM532 439q-137 0 -226 -141q-68 -107 -82 -247h391q62 0 94 45
q28 38 28 102q0 115 -59 180q-54 61 -146 61z" />
    <glyph glyph-name="uniFEBE" unicode="&#x636;" horiz-adv-x="1296" arabic-form="final" 
d="M972 604h-60v95h60v-95zM954 491q138 0 208 -99q53 -76 53 -189q0 -94 -46 -142q9 -10 32 -10h111v-51h-112q-49 0 -64 26q-40 -26 -103 -26h-393q-12 -135 -95 -202q-72 -58 -188 -58q-76 0 -141 34q-68 35 -107 100q-43 71 -43 165q0 66 21 130.5t58 109.5l44 -30
q-31 -41 -49 -95.5t-18 -109.5q0 -128 83 -197q64 -54 153 -54q110 0 169 69q55 63 55 176v442h60v-218q47 119 141 180q77 49 171 49zM950 439q-137 0 -226 -141q-68 -107 -82 -247h391q62 0 94 45q28 38 28 102q0 115 -59 180q-54 61 -146 61z" />
    <glyph glyph-name="uniFEBF" unicode="&#x636;" horiz-adv-x="864" arabic-form="initial" 
d="M554 604h-60v95h60v-95zM537 491q138 0 208 -99q53 -76 53 -189q0 -106 -55 -159q-47 -44 -127 -44h-392l1 -73h-60l1 73h-166v51h165v429h59v-218q47 120 141 180q77 49 172 49zM532 439q-137 0 -226 -141q-68 -107 -82 -247h391q62 0 94 45q28 38 28 102q0 115 -59 180
q-54 61 -146 61z" />
    <glyph glyph-name="uniFEC0" unicode="&#x636;" horiz-adv-x="879" arabic-form="medial" 
d="M553 604h-60v95h60v-95zM537 491q138 0 208 -99q53 -76 53 -189q0 -94 -45 -142q9 -10 31 -10h111v-51h-111q-50 0 -65 26q-40 -26 -103 -26h-392l1 -73h-60l1 73h-166v51h165v429h59v-218q47 120 141 180q77 49 172 49zM532 439q-137 0 -226 -141q-68 -107 -82 -247h391
q62 0 94 45q28 38 28 102q0 115 -59 180q-54 61 -146 61z" />
    <glyph glyph-name="uniFEC2" unicode="&#x637;" horiz-adv-x="915" arabic-form="final" 
d="M573 491q138 0 208 -99q53 -76 53 -189q0 -94 -45 -142q9 -10 31 -10h111v-51h-111q-50 0 -65 26q-40 -26 -103 -26h-594v51h143v663h60v-452q47 119 141 180q77 49 171 49zM568 439q-137 0 -226 -141q-68 -107 -82 -247h391q62 0 94 45q28 38 28 102q0 115 -59 180
q-54 61 -146 61z" />
    <glyph glyph-name="uniFEC3" unicode="&#x637;" horiz-adv-x="864" arabic-form="initial" 
d="M537 491q138 0 208 -99q53 -76 53 -189q0 -106 -55 -159q-47 -44 -127 -44h-616v51h165v663h60v-452q47 119 141 180q77 49 171 49zM532 439q-137 0 -226 -141q-68 -107 -82 -247h391q62 0 94 45q28 38 28 102q0 115 -59 180q-54 61 -146 61z" />
    <glyph glyph-name="uniFEC4" unicode="&#x637;" horiz-adv-x="879" arabic-form="medial" 
d="M537 491q138 0 208 -99q53 -76 53 -189q0 -94 -45 -142q9 -10 31 -10h111v-51h-111q-50 0 -65 26q-40 -26 -103 -26h-616v51h165v663h60v-452q47 119 141 180q77 49 171 49zM532 439q-137 0 -226 -141q-68 -107 -82 -247h391q62 0 94 45q28 38 28 102q0 115 -59 180
q-54 61 -146 61z" />
    <glyph glyph-name="uniFEC6" unicode="&#x638;" horiz-adv-x="915" arabic-form="final" 
d="M573 491q138 0 208 -99q53 -76 53 -189q0 -94 -45 -142q9 -10 31 -10h111v-51h-111q-50 0 -65 26q-40 -26 -103 -26h-594v51h143v663h60v-452q47 119 141 180q77 49 171 49zM593 604h-60v95h60v-95zM568 439q-137 0 -226 -141q-68 -107 -82 -247h391q62 0 94 45
q28 38 28 102q0 115 -59 180q-54 61 -146 61z" />
    <glyph glyph-name="uniFEC7" unicode="&#x638;" horiz-adv-x="864" arabic-form="initial" 
d="M537 491q138 0 208 -99q53 -76 53 -189q0 -106 -55 -159q-47 -44 -127 -44h-616v51h165v663h60v-452q47 119 141 180q77 49 171 49zM556 604h-60v95h60v-95zM532 439q-137 0 -226 -141q-68 -107 -82 -247h391q62 0 94 45q28 38 28 102q0 115 -59 180q-54 61 -146 61z" />
    <glyph glyph-name="uniFEC8" unicode="&#x638;" horiz-adv-x="879" arabic-form="medial" 
d="M537 491q138 0 208 -99q53 -76 53 -189q0 -94 -45 -142q9 -10 31 -10h111v-51h-111q-50 0 -65 26q-40 -26 -103 -26h-616v51h165v663h60v-452q47 119 141 180q77 49 171 49zM556 604h-60v95h60v-95zM532 439q-137 0 -226 -141q-68 -107 -82 -247h391q62 0 94 45
q28 38 28 102q0 115 -59 180q-54 61 -146 61z" />
    <glyph glyph-name="uniFECA" unicode="&#x639;" horiz-adv-x="630" arabic-form="final" 
d="M335 491q103 0 163 -67q54 -61 57 -165q-118 -91 -162 -208h253v-51h-239h-6q-49 0 -68 13q-6 -9 -52 -20q-34 -8 -55 -17q-53 -19 -82 -64q-25 -39 -25 -87q0 -81 60 -131q44 -37 104 -46q21 -3 45 -3q94 0 186 49l22 -46q-95 -56 -210 -56q-26 0 -36 1q-101 9 -166 70
q-66 62 -66 158q0 116 93 180q55 37 127 48q-15 35 -29 58q-49 85 -135 152q3 118 74 180q58 52 147 52zM334 438q-67 0 -111 -46q-42 -44 -48 -118q103 -72 155 -209q2 -3 4 -3q3 0 4 3q50 135 155 209q-7 84 -60 129q-42 35 -99 35z" />
    <glyph glyph-name="uniFECB" unicode="&#x639;" horiz-adv-x="634" arabic-form="initial" 
d="M373 491q64 0 116 -30q43 -24 66 -61l-49 -26q-49 65 -136 65q-69 0 -118 -54q-47 -51 -47 -130q0 -118 75 -170q48 -34 116 -34h180v-51h-576v51h235q-43 31 -66.5 81.5t-23.5 113.5q0 116 70 185q62 60 158 60z" />
    <glyph glyph-name="uniFECC" unicode="&#x639;" horiz-adv-x="659" arabic-form="medial" 
d="M363 491q103 0 163 -67q54 -61 57 -165q-119 -93 -162 -208h254v-51h-235h-6q-52 0 -71 13q-12 -8 -26 -10.5t-51 -2.5h-286v51h305q-44 117 -162 208q3 118 73 180q58 52 147 52zM363 438q-67 0 -111 -46q-42 -44 -48 -118q47 -33 81 -79t74 -130q2 -3 4 -3q3 0 4 3
q50 135 155 209q-7 84 -60 129q-42 35 -99 35z" />
    <glyph glyph-name="uniFECE" unicode="&#x63a;" horiz-adv-x="630" arabic-form="final" 
d="M365 604h-60v95h60v-95zM335 491q103 0 163 -67q54 -61 57 -165q-118 -91 -162 -208h253v-51h-239h-6q-49 0 -68 13q-6 -9 -52 -20q-34 -8 -55 -17q-53 -19 -82 -64q-25 -39 -25 -87q0 -81 60 -131q44 -37 104 -46q21 -3 45 -3q94 0 186 49l22 -46q-95 -56 -210 -56
q-26 0 -36 1q-101 9 -166 70q-66 62 -66 158q0 116 93 180q55 37 127 48q-15 35 -29 58q-49 85 -135 152q3 118 74 180q58 52 147 52zM334 438q-67 0 -111 -46q-42 -44 -48 -118q103 -72 155 -209q2 -3 4 -3q3 0 4 3q50 135 155 209q-7 84 -60 129q-42 35 -99 35z" />
    <glyph glyph-name="uniFECF" unicode="&#x63a;" horiz-adv-x="634" arabic-form="initial" 
d="M400 604h-60v95h60v-95zM373 491q64 0 116 -30q43 -24 66 -61l-49 -26q-49 65 -136 65q-69 0 -118 -54q-47 -51 -47 -130q0 -118 75 -170q48 -34 116 -34h180v-51h-576v51h235q-43 31 -66.5 81.5t-23.5 113.5q0 116 70 185q62 60 158 60z" />
    <glyph glyph-name="uniFED0" unicode="&#x63a;" horiz-adv-x="659" arabic-form="medial" 
d="M394 604h-60v95h60v-95zM363 491q103 0 163 -67q54 -61 57 -165q-119 -93 -162 -208h254v-51h-235h-6q-52 0 -71 13q-12 -8 -26 -10.5t-51 -2.5h-286v51h305q-44 117 -162 208q3 118 73 180q58 52 147 52zM363 438q-67 0 -111 -46q-42 -44 -48 -118q47 -33 81 -79
t74 -130q2 -3 4 -3q3 0 4 3q50 135 155 209q-7 84 -60 129q-42 35 -99 35z" />
    <glyph glyph-name="uniFED2" unicode="&#x641;" horiz-adv-x="1015" arabic-form="final" 
d="M762 604h-60v95h60v-95zM1030 0h-234q-45 0 -65 12q-20 -12 -65 -12h-388q-106 0 -166 75q-47 58 -47 137q0 126 76 212l43 -31q-63 -73 -63 -177q0 -73 47 -120q45 -45 119 -45h369q-51 28 -88 91q-37 64 -37 132q0 105 58 164q53 53 142 53q102 0 155 -68
q45 -58 45 -149q0 -78 -47 -147q-35 -52 -78 -76h224v-51zM731 439q-78 0 -115 -63q-26 -44 -26 -103q1 -67 45 -127q37 -51 96 -84q68 38 106 98q34 54 35 113q0 70 -35 116q-37 50 -106 50z" />
    <glyph glyph-name="uniFED3" unicode="&#x641;" horiz-adv-x="634" arabic-form="initial" 
d="M389 604h-60v95h60v-95zM361 491q104 0 151 -59q42 -53 42 -155v-63q0 -117 -54 -169q-47 -45 -139 -45h-361v51h226q-61 46 -61 163v63q0 117 56 169q48 45 140 45zM360 439q-74 0 -106 -44q-28 -38 -28 -114v-72q0 -86 36 -124q33 -34 98 -34q75 0 107 45q27 38 27 113
v72q0 87 -36 124q-32 34 -98 34z" />
    <glyph glyph-name="uniFED4" unicode="&#x641;" horiz-adv-x="625" arabic-form="medial" 
d="M373 604h-60v95h60v-95zM342 491q102 0 155 -68q45 -58 45 -149q0 -78 -47 -147q-35 -52 -78 -76h224v-51h-234q-45 0 -65 12q-20 -12 -65 -12h-277v51h267q-51 28 -88 91q-37 64 -37 132q0 105 58 164q53 53 142 53zM342 439q-78 0 -115 -63q-26 -44 -26 -103
q1 -67 45 -127q37 -51 96 -84q68 38 106 98q34 54 35 113q0 70 -35 116q-37 50 -106 50z" />
    <glyph glyph-name="uniFED6" unicode="&#x642;" horiz-adv-x="778" arabic-form="final" 
d="M445 604h-54v95h54v-95zM575 604h-54v95h54v-95zM793 0h-119q-14 -112 -89 -183q-81 -77 -215 -77q-145 0 -230 92q-75 83 -75 213q0 103 47 184l45 -30q-35 -71 -35 -147q0 -131 79 -201q66 -58 170 -58q117 0 184 76q48 53 59 131h-135q-191 0 -191 214v63
q0 117 56 169q48 45 140 45q104 0 151 -59q41 -52 41 -155v-226h117v-51zM483 439q-74 0 -106 -44q-28 -38 -28 -114v-72q0 -86 36 -124q33 -34 98 -34h134v230q0 87 -35 124q-33 34 -99 34z" />
    <glyph glyph-name="uniFED7" unicode="&#x642;" horiz-adv-x="634" arabic-form="initial" 
d="M322 605h-54v95h54v-95zM452 605h-54v95h54v-95zM361 491q104 0 151 -59q42 -53 42 -155v-63q0 -117 -54 -169q-47 -45 -139 -45h-361v51h226q-61 46 -61 163v63q0 117 56 169q48 45 140 45zM360 439q-74 0 -106 -44q-28 -38 -28 -114v-72q0 -86 36 -124q33 -34 98 -34
q75 0 107 45q27 38 27 113v72q0 87 -36 124q-32 34 -98 34z" />
    <glyph glyph-name="uniFED8" unicode="&#x642;" horiz-adv-x="625" arabic-form="medial" 
d="M302 605h-54v95h54v-95zM432 605h-54v95h54v-95zM342 491q102 0 155 -68q45 -58 45 -149q0 -78 -47 -147q-35 -52 -78 -76h224v-51h-234q-45 0 -65 12q-20 -12 -65 -12h-277v51h267q-51 28 -88 91q-37 64 -37 132q0 105 58 164q53 53 142 53zM342 439q-78 0 -115 -63
q-26 -44 -26 -103q1 -67 45 -127q37 -51 96 -84q68 38 106 98q34 54 35 113q0 70 -35 116q-37 50 -106 50z" />
    <glyph glyph-name="uniFEDA" unicode="&#x643;" horiz-adv-x="885" arabic-form="final" 
d="M901 0h-129q-50 0 -64 27q-42 -27 -105 -27h-325q-106 0 -166 75q-47 58 -47 137q0 126 76 212l43 -31q-63 -73 -63 -177q0 -73 47 -120q45 -45 119 -45h316q62 0 94 45q28 38 28 102v516h60v-512q0 -91 -45 -139q8 -12 32 -12h129v-51zM540 403q0 -34 -21 -53t-58 -19
h-82v37h83q16 0 26.5 9.5t10.5 23.5q0 17 -10 26.5t-27 9.5h-60v11q0 22 18 44l28 35h43l-43 -52h13q37 0 58 -19t21 -53z" />
    <glyph glyph-name="uniFEDB" unicode="&#x643;" horiz-adv-x="590" arabic-form="initial" 
d="M193 480h134q94 0 141 -60q42 -52 42 -142v-76q0 -103 -54 -156q-47 -46 -129 -46h-327v51h327q63 0 95 45q28 38 28 102v84q0 73 -36 112q-32 34 -87 34h-205v24q0 18 6.5 30.5t29.5 40.5l157 191h70z" />
    <glyph glyph-name="uniFEDC" unicode="&#x643;" horiz-adv-x="609" arabic-form="medial" 
d="M626 0h-129q-51 0 -66 27q-40 -27 -104 -27h-327v51h327q63 0 95 45q28 38 28 102v84q0 73 -36 112q-32 34 -87 34h-205v24q0 18 6.5 30.5t29.5 40.5l157 191h70l-192 -234h134q94 0 141 -60q42 -52 42 -142v-76q0 -89 -45 -139q7 -12 32 -12h129v-51z" />
    <glyph glyph-name="uniFEDE" unicode="&#x644;" horiz-adv-x="743" arabic-form="final" 
d="M758 0h-84q-19 0 -33 6q-11 -138 -95 -207q-71 -59 -189 -59q-76 0 -141 34q-68 35 -107 100q-43 71 -43 165q0 66 21 130.5t58 109.5l44 -30q-31 -41 -49 -95.5t-18 -109.5q0 -128 83 -197q64 -54 153 -54q110 0 169 69q55 63 55 176v676h60v-653q9 -10 31 -10h85v-51z
" />
    <glyph glyph-name="uniFEDF" unicode="&#x644;" horiz-adv-x="317" arabic-form="initial" 
d="M225 714v-512q0 -104 -53 -156q-47 -46 -129 -46h-43v51h43q62 0 94 45q28 38 28 102v516h60z" />
    <glyph glyph-name="uniFEE0" unicode="&#x644;" horiz-adv-x="325" arabic-form="medial" 
d="M341 0h-129q-50 0 -65 27q-42 -27 -104 -27h-43v51h43q62 0 94 45q28 38 28 102v516h60v-512q0 -91 -45 -139q8 -12 33 -12h128v-51z" />
    <glyph glyph-name="uniFEE2" unicode="&#x645;" horiz-adv-x="693" arabic-form="final" 
d="M387 491q104 0 151 -59q42 -53 42 -155v-79q0 -71 35 -111q30 -36 80 -36h14v-51h-19q-86 3 -128 71q-37 -111 -175 -111q-140 0 -177 109q-48 -3 -69 -23.5t-21 -64.5v-329h-60v320q0 73 32 108.5t103 39.5q-4 23 -4 53v104q0 117 56 169q48 45 140 45zM386 439
q-74 0 -106 -44q-28 -38 -28 -114v-112q0 -86 36 -124q33 -34 98 -34q75 0 107 45q27 38 27 113v112q0 87 -36 124q-32 34 -98 34z" />
    <glyph glyph-name="uniFEE3" unicode="&#x645;" horiz-adv-x="634" arabic-form="initial" 
d="M361 491q104 0 151 -59q42 -53 42 -155v-104q0 -117 -54 -168q-47 -45 -139 -45q-143 0 -178 112q-42 -72 -140 -72h-43v51h43q62 0 94 45q28 38 28 102v79q0 117 55 169q48 45 141 45zM493 169v112q0 87 -36 124q-32 34 -98 34q-74 0 -106 -44q-28 -38 -28 -114v-112
q0 -86 36 -124q33 -34 98 -34q75 0 107 44q27 38 27 114z" />
    <glyph glyph-name="uniFEE4" unicode="&#x645;" horiz-adv-x="667" arabic-form="medial" 
d="M683 0h-19q-86 3 -128 71q-37 -111 -175 -111q-143 0 -178 112q-42 -72 -140 -72h-43v51h43q62 0 94 45q28 38 28 102v79q0 117 55 169q48 45 141 45q104 0 151 -59q42 -53 42 -155v-79q0 -71 35 -111q30 -36 80 -36h14v-51zM493 169v112q0 87 -36 124q-32 34 -98 34
q-74 0 -106 -44q-28 -38 -28 -114v-112q0 -86 36 -124q33 -34 98 -34q75 0 107 44q27 38 27 114z" />
    <glyph glyph-name="uniFEE6" unicode="&#x646;" horiz-adv-x="743" arabic-form="final" 
d="M389 515h-60v95h60v-95zM642 480v-419q9 -10 31 -10h85v-51h-84q-19 0 -33 6q-11 -138 -95 -207q-71 -59 -189 -59q-76 0 -141 34q-68 35 -107 100q-43 71 -43 165q0 66 21 130.5t58 109.5l44 -30q-31 -41 -49 -95.5t-18 -109.5q0 -128 83 -197q64 -54 153 -54
q110 0 169 69q55 63 55 176v442h60z" />
    <glyph glyph-name="uniFEE7" unicode="&#x646;" horiz-adv-x="317" arabic-form="initial" 
d="M225 604h-60v95h60v-95zM225 480v-278q0 -104 -53 -156q-47 -46 -129 -46h-43v51h43q62 0 94 45q28 38 28 102v282h60z" />
    <glyph glyph-name="uniFEE8" unicode="&#x646;" horiz-adv-x="325" arabic-form="medial" 
d="M225 604h-60v95h60v-95zM341 0h-129q-50 0 -65 27q-42 -27 -104 -27h-43v51h43q62 0 94 45q28 38 28 102v282h60v-278q0 -91 -45 -139q8 -12 33 -12h128v-51z" />
    <glyph glyph-name="uniFEEA" unicode="&#x647;" horiz-adv-x="581" arabic-form="final" 
d="M468 508v-310q0 -71 34 -111q31 -36 81 -36h14v-51h-18q-100 0 -144 82q-27 -25 -73.5 -41.5t-90.5 -16.5q-191 0 -191 213v40q0 213 193 213q76 0 135 -32v50h60zM275 439q-135 0 -135 -158v-48q0 -85 37 -124q32 -34 96 -34q39 0 78 16t64 43q-7 29 -7 98v166
q-47 41 -133 41z" />
    <glyph glyph-name="uniFEEB" unicode="&#x647;" horiz-adv-x="795" arabic-form="initial" 
d="M460 491q127 -1 200 -82q70 -78 70 -212q0 -101 -56 -153q-47 -44 -126 -44h-196h-4q-42 0 -65 13q-21 -13 -69 -13h-214v51h202q-33 16 -57 61t-24 89q0 82 44 133t117 51q83 0 127 -65q33 -49 33 -119q0 -50 -29 -98q-24 -38 -52 -52h186q62 0 95 46q28 38 28 102
q0 114 -62 180q-56 60 -150 60q-105 0 -197 -46l25 58q81 40 174 40zM282 339q-60 0 -89 -51q-21 -36 -21 -84q0 -54 33 -96q30 -38 77 -49q53 12 84 59q25 39 25 86q0 57 -28 95q-29 40 -81 40z" />
    <glyph glyph-name="uniFEEC" unicode="&#x647;" horiz-adv-x="811" arabic-form="medial" 
d="M826 0h-111q-51 0 -64 26q-43 -26 -103 -26h-196h-4q-42 0 -65 13q-21 -13 -69 -13h-214v51h202q-33 16 -57 61t-24 89q0 82 44 133t117 51q83 0 127 -65q33 -49 33 -119q0 -50 -29 -98q-24 -38 -52 -52h186q62 0 95 46q28 38 28 102q0 114 -62 180q-56 60 -150 60
q-105 0 -197 -46l25 58q81 40 174 40q127 -1 200 -82q70 -78 70 -212q0 -88 -43 -139q9 -7 29 -7h110v-51zM282 59q53 12 84 59q25 39 25 86q0 57 -28 95q-29 40 -81 40q-60 0 -89 -51q-21 -36 -21 -84q0 -54 33 -96q30 -38 77 -49z" />
    <glyph glyph-name="uniFEEE" unicode="&#x648;" horiz-adv-x="568" arabic-form="final" 
d="M275 491q105 0 152 -59q41 -52 41 -155v-226h116v-51h-116v-35q-1 -118 -62 -176q-52 -49 -146 -49q-83 0 -155 38l21 48q58 -33 128 -33q154 0 154 167v40h-137q-191 0 -191 214v63q0 117 55 169q48 45 140 45zM274 439q-74 0 -106 -44q-28 -38 -28 -114v-72
q0 -86 36 -124q33 -34 98 -34h134v230q0 87 -35 124q-33 34 -99 34z" />
    <glyph glyph-name="uniFEF0" unicode="&#x649;" horiz-adv-x="690" arabic-form="final" 
d="M706 0h-34q0 -53 -29 -109q-34 -65 -96 -104q-74 -47 -177 -47q-146 0 -230 92q-75 83 -75 213q0 103 47 184l45 -30q-35 -71 -35 -147q0 -131 79 -201q66 -58 170 -58q124 0 194 85q21 25 33.5 55.5t12.5 54.5q0 12 -12 12h-138v51h245v-51z" />
    <glyph glyph-name="uniFEF2" unicode="&#x64a;" horiz-adv-x="690" arabic-form="final" 
d="M706 0h-34q0 -53 -29 -109q-34 -65 -96 -104q-74 -47 -177 -47q-146 0 -230 92q-75 83 -75 213q0 103 47 184l45 -30q-35 -71 -35 -147q0 -131 79 -201q66 -58 170 -58q124 0 194 85q21 25 33.5 55.5t12.5 54.5q0 12 -12 12h-138v51h245v-51zM331 -465h-54v95h54v-95z
M461 -465h-54v95h54v-95z" />
    <glyph glyph-name="uniFEF3" unicode="&#x64a;" horiz-adv-x="317" arabic-form="initial" 
d="M225 480v-278q0 -104 -53 -156q-47 -46 -129 -46h-43v51h43q62 0 94 45q28 38 28 102v282h60zM88 -212h-54v95h54v-95zM218 -212h-54v95h54v-95z" />
    <glyph glyph-name="uniFEF4" unicode="&#x64a;" horiz-adv-x="325" arabic-form="medial" 
d="M341 0h-129q-50 0 -65 27q-42 -27 -104 -27h-43v51h43q62 0 94 45q28 38 28 102v282h60v-278q0 -91 -45 -139q8 -12 33 -12h128v-51zM88 -212h-54v95h54v-95zM218 -212h-54v95h54v-95z" />
    <glyph glyph-name=".notdef" horiz-adv-x="200" 
d="M20 0v714h160v-714h-160zM160 20v674h-120v-674h120z" />
    <glyph glyph-name="glyph1" 
 />
    <glyph glyph-name="glyph2" horiz-adv-x="200" 
 />
    <glyph glyph-name="space" unicode=" " horiz-adv-x="200" 
 />
    <glyph glyph-name="uni060C" unicode="&#x60c;" horiz-adv-x="214" 
d="M48 0l65 276h52l-47 -276h-70z" />
    <glyph glyph-name="uni0615" unicode="&#x615;" 
d="M-37 754v-72q26 33 69 33q48 0 68 -33q12 -19 12 -44q0 -70 -74 -70h-146v37h31l-1 149h41zM34 681q-25 0 -45 -21t-27 -55h82q11 0 19 9.5t8 24.5q0 19 -10 30.5t-27 11.5z" />
    <glyph glyph-name="uni061B" unicode="&#x61b;" horiz-adv-x="252" 
d="M86 410l65 276h52l-47 -276h-70zM91 0v88h64v-88h-64z" />
    <glyph glyph-name="uni061F" unicode="&#x61f;" horiz-adv-x="550" 
d="M270 726q185 0 223 -192l-59 -11q-32 149 -162 149q-67 0 -108 -41q-35 -36 -35 -88q0 -40 16 -66.5t70 -74.5q7 -6 11 -10q52 -45 70 -80t18 -90v-34h-52v30q0 40 -18 69t-69 72q-63 53 -85 87q-25 41 -25 94q0 90 64 141q55 45 141 45zM257 88h62v-88h-62v88z" />
    <glyph glyph-name="uni0621" unicode="&#x621;" horiz-adv-x="546" 
d="M57 -40v46q45 29 129 39q-78 59 -78 177q0 102 57 163q53 57 138 57q100 0 164 -86l-46 -24q-47 62 -119 62q-60 0 -101 -51q-38 -47 -38 -115q0 -106 65 -151q42 -29 101 -29h161v-48h-209q-57 0 -88 -4q-73 -8 -129 -37q-4 -2 -5 -2q-2 0 -2 3z" />
    <glyph glyph-name="uni0622" unicode="&#x622;" horiz-adv-x="244" 
d="M76 840q17 0 41 -13l6 -3q25 -14 37 -14q14 0 30 25l30 -19q-25 -44 -60 -44q-18 0 -52 20q-18 11 -30 11q-17 0 -31 -26l-31 19q27 44 60 44zM152 0h-60v658h60v-658z" />
    <glyph glyph-name="uni0623" unicode="&#x623;" horiz-adv-x="244" 
d="M198 773h-155v38h31q-14 16 -14 40q0 30 20 49.5t51 19.5q18 0 36.5 -10t24.5 -24l-31 -19l-1 1q-12 18 -31 18q-28 0 -28 -35q0 -17 12.5 -28.5t31.5 -11.5h53v-38zM152 658v-658h-60v658h60z" />
    <glyph glyph-name="uni0624" unicode="&#x624;" horiz-adv-x="560" 
d="M348 604h-155v38h31q-14 16 -14 40q0 30 20 49.5t51 19.5q18 0 36.5 -10t24.5 -24l-31 -19l-1 1q-12 18 -31 18q-28 0 -28 -35q0 -17 12.5 -28.5t31.5 -11.5h53v-38zM275 491q105 0 152 -59q41 -52 41 -155v-304q0 -127 -59 -184q-51 -49 -149 -49q-86 0 -155 38l21 48
q60 -33 128 -33q154 0 154 168v64q-60 -34 -137 -34q-191 0 -191 214v72q0 117 55 169q48 45 140 45zM274 439q-74 0 -106 -44q-28 -38 -28 -114v-81q0 -86 36 -124q33 -34 98 -34q80 0 134 42v197q0 87 -35 124q-33 34 -99 34z" />
    <glyph glyph-name="uni0625" unicode="&#x625;" horiz-adv-x="244" 
d="M152 714v-714h-60v714h60zM199 -263h-155v37h31q-14 17 -14 40q0 31 20 50.5t51 19.5q19 0 37 -10.5t24 -24.5l-31 -18q-12 18 -32 18q-28 0 -28 -35q0 -17 12 -28t32 -12h53v-37z" />
    <glyph glyph-name="uni0626" unicode="&#x626;" horiz-adv-x="731" 
d="M209 344h-155v38h31q-14 16 -14 40q0 30 20 49.5t51 19.5q18 0 36.5 -10t24.5 -24l-31 -19l-1 1q-12 18 -31 18q-28 0 -28 -35q0 -17 12.5 -28.5t31.5 -11.5h53v-38zM500 491q50 0 99 -28q43 -24 65 -60l-48 -26q-21 28 -53 45t-65 17q-66 0 -110 -53q-41 -51 -42 -131
q1 -119 75 -171q47 -33 111 -33h88q53 0 53 -49q0 -55 -30 -112q-34 -65 -97 -104q-74 -46 -176 -46q-146 0 -230 92q-75 83 -75 213q0 103 47 184l45 -30q-35 -71 -35 -147q0 -131 79 -201q66 -58 170 -58q125 0 195 87q20 25 32.5 55t12.5 53q0 12 -12 12h-95
q-96 0 -160 77q-58 69 -58 169q0 118 64 185q57 60 150 60z" />
    <glyph glyph-name="uni0627" unicode="&#x627;" horiz-adv-x="244" 
d="M152 714v-714h-60v714h60z" />
    <glyph glyph-name="uni0628" unicode="&#x628;" horiz-adv-x="878" 
d="M785 480v-278q0 -103 -54 -156q-47 -46 -128 -46h-325q-106 0 -166 75q-47 58 -47 137q0 126 76 212l43 -31q-63 -73 -63 -177q0 -73 47 -120q45 -45 119 -45h316q62 0 94 45q28 38 28 102v282h60zM458 -212h-60v96h60v-96z" />
    <glyph glyph-name="uni0629" unicode="&#x629;" horiz-adv-x="549" 
d="M237 604h-54v95h54v-95zM367 604h-54v95h54v-95zM275 491q105 0 152 -59q42 -52 42 -155v-72q0 -118 -55 -169q-47 -45 -139 -45q-106 0 -153 59q-42 52 -42 155v72q0 117 55 169q48 45 140 45zM274 439q-74 0 -106 -44q-28 -38 -28 -114v-81q0 -86 36 -124
q33 -34 98 -34q75 0 107 45q27 38 27 113v81q0 87 -36 124q-32 34 -98 34z" />
    <glyph glyph-name="uni062A" unicode="&#x62a;" horiz-adv-x="878" 
d="M405 540h-54v95h54v-95zM535 540h-54v95h54v-95zM785 480v-278q0 -103 -54 -156q-47 -46 -128 -46h-325q-106 0 -166 75q-47 58 -47 137q0 126 76 212l43 -31q-63 -73 -63 -177q0 -73 47 -120q45 -45 119 -45h316q62 0 94 45q28 38 28 102v282h60z" />
    <glyph glyph-name="uni062B" unicode="&#x62b;" horiz-adv-x="878" 
d="M468 681h-51v83h51v-83zM405 540h-54v95h54v-95zM535 540h-54v95h54v-95zM785 480v-278q0 -103 -54 -156q-47 -46 -128 -46h-325q-106 0 -166 75q-47 58 -47 137q0 126 76 212l43 -31q-63 -73 -63 -177q0 -73 47 -120q45 -45 119 -45h316q62 0 94 45q28 38 28 102v282h60
z" />
    <glyph glyph-name="uni062C" unicode="&#x62c;" horiz-adv-x="687" 
d="M241 -15q-60 -18 -93 -66q-29 -42 -29 -94q0 -81 60 -131q44 -38 104 -46q21 -3 45 -3q94 0 186 49l22 -46q-95 -56 -210 -56q-26 0 -36 1q-101 9 -166 70q-66 62 -66 158q0 74 38 128q37 53 106 80q53 19 141 22h167q-26 29 -37 91q-3 17 -12 92q-11 89 -33 130
q-38 75 -136 75q-74 0 -132 -72l-47 29q30 44 78 70q48 25 102 25q136 0 190 -101q19 -34 26 -64.5t15 -114.5q8 -72 26 -110q13 -29 30 -39.5t48 -10.5h2v-51h-269q-72 0 -120 -15zM391 -212h-60v96h60v-96z" />
    <glyph glyph-name="uni062D" unicode="&#x62d;" horiz-adv-x="687" 
d="M241 -15q-60 -18 -93 -66q-29 -42 -29 -94q0 -81 60 -131q44 -38 104 -46q21 -3 45 -3q94 0 186 49l22 -46q-95 -56 -210 -56q-26 0 -36 1q-101 9 -166 70q-66 62 -66 158q0 74 38 128q37 53 106 80q53 19 141 22h167q-26 29 -37 91q-3 17 -12 92q-11 89 -33 130
q-38 75 -136 75q-74 0 -132 -72l-47 29q30 44 78 70q48 25 102 25q136 0 190 -101q19 -34 26 -64.5t15 -114.5q8 -72 26 -110q13 -29 30 -39.5t48 -10.5h2v-51h-269q-72 0 -120 -15z" />
    <glyph glyph-name="uni062E" unicode="&#x62e;" horiz-adv-x="687" 
d="M330 604h-60v95h60v-95zM241 -15q-60 -18 -93 -66q-29 -42 -29 -94q0 -81 60 -131q44 -38 104 -46q21 -3 45 -3q94 0 186 49l22 -46q-95 -56 -210 -56q-26 0 -36 1q-101 9 -166 70q-66 62 -66 158q0 74 38 128q37 53 106 80q53 19 141 22h167q-26 29 -37 91q-3 17 -12 92
q-11 89 -33 130q-38 75 -136 75q-74 0 -132 -72l-47 29q30 44 78 70q48 25 102 25q136 0 190 -101q19 -34 26 -64.5t15 -114.5q8 -72 26 -110q13 -29 30 -39.5t48 -10.5h2v-51h-269q-72 0 -120 -15z" />
    <glyph glyph-name="uni062F" unicode="&#x62f;" horiz-adv-x="507" 
d="M179 443l25 48q238 -44 238 -283q0 -208 -193 -208h-191v51h191q133 0 133 155q0 115 -67 176q-48 43 -136 61z" />
    <glyph glyph-name="uni0630" unicode="&#x630;" horiz-adv-x="507" 
d="M239 604h-60v95h60v-95zM179 443l25 48q238 -44 238 -283q0 -208 -193 -208h-191v51h191q133 0 133 155q0 115 -67 176q-48 43 -136 61z" />
    <glyph glyph-name="uni0631" unicode="&#x631;" horiz-adv-x="337" 
d="M245 480v-463q0 -83 -7 -127.5t-26 -76.5q-40 -73 -144 -73q-61 0 -105 22l20 48q34 -17 78 -17q71 0 97.5 46.5t26.5 169.5v471h60z" />
    <glyph glyph-name="uni0632" unicode="&#x632;" horiz-adv-x="337" 
d="M245 604h-60v95h60v-95zM245 480v-463q0 -83 -7 -127.5t-26 -76.5q-40 -73 -144 -73q-61 0 -105 22l20 48q34 -17 78 -17q71 0 97.5 46.5t26.5 169.5v471h60z" />
    <glyph glyph-name="uni0633" unicode="&#x633;" horiz-adv-x="1340" 
d="M1248 479v-288q0 -102 -54 -155q-47 -45 -128 -45q-109 0 -151 82q-40 -82 -149 -82q-84 0 -124 54v-11q-3 -153 -88 -229q-73 -65 -197 -65q-76 0 -141 34q-68 35 -107 100q-43 71 -43 165q0 66 21 130.5t58 109.5l44 -30q-31 -41 -49 -95.5t-18 -109.5q0 -128 83 -197
q64 -54 153 -54q110 0 169 69q55 63 55 176v442h60v-293q0 -72 36 -111q32 -34 86 -34q62 0 94 44q27 38 27 101v293h60v-293q0 -73 35 -111q32 -34 86 -34q62 0 94 44q28 38 28 101v292h60z" />
    <glyph glyph-name="uni0634" unicode="&#x634;" horiz-adv-x="1340" 
d="M940 745h-51v83h51v-83zM877 604h-54v95h54v-95zM1007 604h-54v95h54v-95zM1248 479v-288q0 -102 -54 -155q-47 -45 -128 -45q-109 0 -151 82q-40 -82 -149 -82q-84 0 -124 54v-11q-3 -153 -88 -229q-73 -65 -197 -65q-76 0 -141 34q-68 35 -107 100q-43 71 -43 165
q0 66 21 130.5t58 109.5l44 -30q-31 -41 -49 -95.5t-18 -109.5q0 -128 83 -197q64 -54 153 -54q110 0 169 69q55 63 55 176v442h60v-293q0 -72 36 -111q32 -34 86 -34q62 0 94 44q27 38 27 101v293h60v-293q0 -73 35 -111q32 -34 86 -34q62 0 94 44q28 38 28 101v292h60z
" />
    <glyph glyph-name="uni0635" unicode="&#x635;" horiz-adv-x="1281" 
d="M642 480v-218q47 119 141 180q77 49 171 49q138 0 208 -99q53 -76 53 -189q0 -106 -55 -159q-47 -44 -127 -44h-393q-12 -135 -95 -202q-72 -58 -188 -58q-76 0 -141 34q-68 35 -107 100q-43 71 -43 165q0 66 21 130.5t58 109.5l44 -30q-31 -41 -49 -95.5t-18 -109.5
q0 -128 83 -197q64 -54 153 -54q110 0 169 69q55 63 55 176v442h60zM950 439q-137 0 -226 -141q-68 -107 -82 -247h391q62 0 94 45q28 38 28 102q0 115 -59 180q-54 61 -146 61z" />
    <glyph glyph-name="uni0636" unicode="&#x636;" horiz-adv-x="1281" 
d="M972 604h-60v95h60v-95zM642 480v-218q47 119 141 180q77 49 171 49q138 0 208 -99q53 -76 53 -189q0 -106 -55 -159q-47 -44 -127 -44h-393q-12 -135 -95 -202q-72 -58 -188 -58q-76 0 -141 34q-68 35 -107 100q-43 71 -43 165q0 66 21 130.5t58 109.5l44 -30
q-31 -41 -49 -95.5t-18 -109.5q0 -128 83 -197q64 -54 153 -54q110 0 169 69q55 63 55 176v442h60zM950 439q-137 0 -226 -141q-68 -107 -82 -247h391q62 0 94 45q28 38 28 102q0 115 -59 180q-54 61 -146 61z" />
    <glyph glyph-name="uni0637" unicode="&#x637;" horiz-adv-x="899" 
d="M261 714v-452q47 119 141 180q77 49 171 49q138 0 208 -99q53 -76 53 -189q0 -106 -55 -159q-47 -44 -127 -44h-594v51h143v663h60zM568 439q-137 0 -226 -141q-68 -107 -82 -247h391q62 0 94 45q28 38 28 102q0 115 -59 180q-54 61 -146 61z" />
    <glyph glyph-name="uni0638" unicode="&#x638;" horiz-adv-x="899" 
d="M261 714v-452q47 119 141 180q77 49 171 49q138 0 208 -99q53 -76 53 -189q0 -106 -55 -159q-47 -44 -127 -44h-594v51h143v663h60zM593 604h-60v95h60v-95zM568 439q-137 0 -226 -141q-68 -107 -82 -247h391q62 0 94 45q28 38 28 102q0 115 -59 180q-54 61 -146 61z" />
    <glyph glyph-name="uni0639" unicode="&#x639;" horiz-adv-x="585" 
d="M153 255q1 -120 75 -171q48 -33 116 -33h180v-51h-163q-72 0 -120 -15q-60 -18 -93 -66q-29 -42 -29 -94q0 -81 60 -131q44 -37 104 -46q20 -3 45 -3q94 0 186 49l22 -46q-95 -56 -210 -56q-23 0 -36 1q-101 9 -166 70q-66 62 -66 158q0 88 54 149q40 45 96 59
q-56 28 -87 92q-28 56 -28 125q0 116 70 185q62 60 158 60q64 0 116 -30q43 -24 66 -61l-49 -26q-49 65 -136 65q-69 0 -118 -54q-47 -51 -47 -130z" />
    <glyph glyph-name="uni063A" unicode="&#x63a;" horiz-adv-x="585" 
d="M347 604h-60v95h60v-95zM153 255q1 -120 75 -171q48 -33 116 -33h180v-51h-163q-72 0 -120 -15q-60 -18 -93 -66q-29 -42 -29 -94q0 -81 60 -131q44 -37 104 -46q20 -3 45 -3q94 0 186 49l22 -46q-95 -56 -210 -56q-23 0 -36 1q-101 9 -166 70q-66 62 -66 158
q0 88 54 149q40 45 96 59q-56 28 -87 92q-28 56 -28 125q0 116 70 185q62 60 158 60q64 0 116 -30q43 -24 66 -61l-49 -26q-49 65 -136 65q-69 0 -118 -54q-47 -51 -47 -130z" />
    <glyph glyph-name="uni0640" unicode="&#x640;" horiz-adv-x="188" 
d="M208 0h-208v51h208v-51z" />
    <glyph glyph-name="uni0641" unicode="&#x641;" horiz-adv-x="998" 
d="M753 604h-60v95h60v-95zM725 491q104 0 151 -59q42 -53 42 -155v-63q0 -117 -54 -169q-47 -45 -139 -45h-447q-106 0 -166 75q-47 58 -47 137q0 126 76 212l43 -31q-63 -73 -63 -177q0 -73 47 -120q45 -45 119 -45h302q-60 46 -60 163v63q0 117 55 169q48 45 141 45z
M724 439q-74 0 -106 -44q-28 -38 -28 -114v-72q0 -86 36 -124q33 -34 98 -34q75 0 107 45q27 38 27 113v72q0 87 -36 124q-32 34 -98 34z" />
    <glyph glyph-name="uni0642" unicode="&#x642;" horiz-adv-x="757" 
d="M445 604h-54v95h54v-95zM575 604h-54v95h54v-95zM483 491q105 0 152 -59q41 -52 41 -155v-237q0 -70 -28 -133q-32 -74 -95 -117q-74 -50 -183 -50q-145 0 -230 92q-75 83 -75 213q0 103 47 184l45 -30q-35 -71 -35 -147q0 -131 79 -201q66 -58 170 -58q128 0 195 89
q48 63 48 142q-56 -33 -135 -33q-191 0 -191 214v72q0 117 55 169q48 45 140 45zM483 439q-74 0 -106 -44q-28 -38 -28 -114v-81q0 -86 36 -124q33 -34 98 -34q80 0 134 42v197q0 87 -35 124q-33 34 -99 34z" />
    <glyph glyph-name="uni0643" unicode="&#x643;" horiz-adv-x="878" 
d="M785 714v-512q0 -103 -54 -156q-47 -46 -128 -46h-325q-106 0 -166 75q-47 58 -47 137q0 126 76 212l43 -31q-63 -73 -63 -177q0 -73 47 -120q45 -45 119 -45h316q62 0 94 45q28 38 28 102v516h60zM448 475h13q37 0 58 -19t21 -53t-21 -53t-58 -19h-82v37h83
q16 0 26.5 9.5t10.5 23.5q0 17 -10 26.5t-27 9.5h-60v11q0 22 18 44l28 35h43z" />
    <glyph glyph-name="uni0644" unicode="&#x644;" horiz-adv-x="735" 
d="M642 714v-668q0 -158 -85 -237q-73 -69 -200 -69q-76 0 -141 34q-68 35 -107 100q-43 71 -43 165q0 66 21 130.5t58 109.5l44 -30q-31 -41 -49 -95.5t-18 -109.5q0 -128 83 -197q64 -54 153 -54q110 0 169 69q55 63 55 176v676h60z" />
    <glyph glyph-name="uni0645" unicode="&#x645;" horiz-adv-x="660" 
d="M387 491q104 0 151 -59q42 -53 42 -155v-104q0 -117 -54 -168q-47 -45 -139 -45q-140 0 -177 109q-48 -3 -69 -23.5t-21 -64.5v-329h-60v320q0 73 31.5 108t103.5 40q-4 23 -4 53v104q0 117 56 169q48 45 140 45zM520 169v112q0 87 -36 124q-32 34 -98 34q-74 0 -106 -44
q-28 -38 -28 -114v-112q0 -86 36 -124q33 -34 98 -34q75 0 107 45q27 38 27 113z" />
    <glyph glyph-name="uni0646" unicode="&#x646;" horiz-adv-x="735" 
d="M389 515h-60v95h60v-95zM642 480v-434q0 -158 -85 -237q-73 -69 -200 -69q-76 0 -141 34q-68 35 -107 100q-43 71 -43 165q0 66 21 130.5t58 109.5l44 -30q-31 -41 -49 -95.5t-18 -109.5q0 -128 83 -197q64 -54 153 -54q110 0 169 69q55 63 55 176v442h60z" />
    <glyph glyph-name="uni0647" unicode="&#x647;" horiz-adv-x="549" 
d="M275 491q105 0 152 -59q42 -52 42 -155v-72q0 -118 -55 -169q-47 -45 -139 -45q-106 0 -153 59q-42 52 -42 155v72q0 117 55 169q48 45 140 45zM274 439q-74 0 -106 -44q-28 -38 -28 -114v-81q0 -86 36 -124q33 -34 98 -34q75 0 107 45q27 38 27 113v81q0 87 -36 124
q-32 34 -98 34z" />
    <glyph glyph-name="uni0648" unicode="&#x648;" horiz-adv-x="560" 
d="M275 491q105 0 152 -59q41 -52 41 -155v-304q0 -127 -59 -184q-51 -49 -149 -49q-86 0 -155 38l21 48q60 -33 128 -33q154 0 154 168v64q-60 -34 -137 -34q-191 0 -191 214v72q0 117 55 169q48 45 140 45zM274 439q-74 0 -106 -44q-28 -38 -28 -114v-81q0 -86 36 -124
q33 -34 98 -34q80 0 134 42v197q0 87 -35 124q-33 34 -99 34z" />
    <glyph glyph-name="uni0649" unicode="&#x649;" horiz-adv-x="731" 
d="M500 491q50 0 99 -28q43 -24 65 -60l-48 -26q-21 28 -53 45t-65 17q-66 0 -110 -53q-41 -51 -42 -131q1 -119 75 -171q47 -33 111 -33h88q53 0 53 -49q0 -55 -30 -112q-34 -65 -97 -104q-74 -46 -176 -46q-146 0 -230 92q-75 83 -75 213q0 103 47 184l45 -30
q-35 -71 -35 -147q0 -131 79 -201q66 -58 170 -58q125 0 195 87q20 25 32.5 55t12.5 53q0 12 -12 12h-95q-96 0 -160 77q-58 69 -58 169q0 118 64 185q57 60 150 60z" />
    <glyph glyph-name="uni064A" unicode="&#x64a;" horiz-adv-x="731" 
d="M500 491q50 0 99 -28q43 -24 65 -60l-48 -26q-21 28 -53 45t-65 17q-66 0 -110 -53q-41 -51 -42 -131q1 -119 75 -171q47 -33 111 -33h88q53 0 53 -49q0 -55 -30 -112q-34 -65 -97 -104q-74 -46 -176 -46q-146 0 -230 92q-75 83 -75 213q0 103 47 184l45 -30
q-35 -71 -35 -147q0 -131 79 -201q66 -58 170 -58q125 0 195 87q20 25 32.5 55t12.5 53q0 12 -12 12h-95q-96 0 -160 77q-58 69 -58 169q0 118 64 185q57 60 150 60zM331 -465h-54v95h54v-95zM461 -465h-54v95h54v-95z" />
    <glyph glyph-name="uni064B" unicode="&#x64b;" 
d="M78 671h-155v37h155v-37zM78 563h-155v37h155v-37z" />
    <glyph glyph-name="uni064C" unicode="&#x64c;" 
d="M54 727q32 0 53.5 -21.5t21.5 -55.5q0 -44 -30 -71q-26 -24 -68 -24q-55 0 -88 20q-7 4 -14 10q-4 3 -5 3q-2 0 -5 -4l-14 -20l-31 20l27 37q7 9 15 9q5 0 15 -7q1 0 1 -1q41 -32 76 -34q-27 23 -27 64q0 33 20.5 54t52.5 21zM53 692q-14 0 -23.5 -11t-10.5 -30
q0 -40 36 -58q14 5 24 21t11 34q0 20 -10.5 32t-26.5 12z" />
    <glyph glyph-name="uni064D" unicode="&#x64d;" 
d="M76 -130h-155v37h155v-37zM76 -238h-155v38h155v-38z" />
    <glyph glyph-name="uni064E" unicode="&#x64e;" 
d="M78 563h-155v37h155v-37z" />
    <glyph glyph-name="uni064F" unicode="&#x64f;" 
d="M34 760q32 0 53.5 -22t21.5 -56q0 -36 -19.5 -56.5t-73.5 -39.5q-9 -3 -25 -8q-55 -19 -90 -28l-15 31q64 18 106 35q-33 22 -33 68q0 33 21.5 54.5t53.5 21.5zM32 630q15 4 26 18.5t12 31.5q0 21 -10 33t-26 12q-15 0 -24.5 -11t-10.5 -30q0 -38 33 -54z" />
    <glyph glyph-name="uni0650" unicode="&#x650;" 
d="M78 -132h-155v37h155v-37z" />
    <glyph glyph-name="uni0651" unicode="&#x651;" 
d="M127 714v-74q0 -75 -77 -75q-32 0 -51 17q-19 -17 -52 -17q-76 0 -76 75v74h40v-77q0 -34 34 -34t34 34v63h40v-63q0 -34 34 -34q33 0 33 34v77h41z" />
    <glyph glyph-name="uni0652" unicode="&#x652;" 
d="M-2 719q37 0 60 -27q18 -22 18 -52q0 -36 -24 -59q-21 -20 -54 -20q-37 0 -59 26q-18 22 -18 53q0 35 24 58q21 21 53 21zM-1 685q-17 0 -28 -12.5t-11 -32.5t10.5 -32t28.5 -12q17 0 28 12t11 32q0 19 -11 32t-28 13z" />
    <glyph glyph-name="uni0653" unicode="&#x653;" 
d="M-44 632q17 0 41 -13l6 -3q25 -14 37 -14q14 0 30 25l30 -19q-25 -44 -60 -44q-18 0 -52 20q-18 11 -30 11q-17 0 -31 -26l-31 19q27 44 60 44z" />
    <glyph glyph-name="uni0654" unicode="&#x654;" 
d="M75 566h-155v38h31q-14 16 -14 40q0 30 20 49.5t51 19.5q18 0 36.5 -10t24.5 -24l-31 -19l-1 1q-12 18 -31 18q-28 0 -28 -35q0 -18 12.5 -29t31.5 -11h53v-38z" />
    <glyph glyph-name="uni0655" unicode="&#x655;" 
d="M75 -241h-155v37h31q-14 18 -14 40q0 31 20 50.5t51 19.5q19 0 37 -10t24 -25l-31 -18q-12 18 -32 18q-28 0 -28 -35q0 -17 12 -28t32 -12h53v-37z" />
    <glyph glyph-name="uni0660" unicode="&#x660;" horiz-adv-x="274" 
d="M223 273l-84 -83l-87 87l83 84z" />
    <glyph glyph-name="uni0661" unicode="&#x661;" horiz-adv-x="244" 
d="M152 714v-714h-60v714h60z" />
    <glyph glyph-name="uni0662" unicode="&#x662;" horiz-adv-x="501" 
d="M287 726q113 0 162 -85l-48 -27q-25 34 -51 47.5t-67 13.5q-60 0 -96 -41q-35 -39 -35 -104v-530h-60v529q0 96 59 150q51 47 136 47z" />
    <glyph glyph-name="uni0663" unicode="&#x663;" horiz-adv-x="838" 
d="M758 714v-216q0 -102 -54 -155q-47 -45 -128 -45q-108 0 -149 83q-40 -83 -151 -83q-82 0 -124 53v-351h-60v714h60v-220q0 -73 36 -111q32 -34 86 -34q61 0 93 44q28 38 28 101v220h60v-220q0 -73 35 -111q32 -34 86 -34q62 0 94 44q28 38 28 101v220h60z" />
    <glyph glyph-name="uni0664" unicode="&#x664;" horiz-adv-x="492" 
d="M275 728q54 0 96 -22.5t66 -63.5l-49 -27q-24 33 -50 47t-64 14q-63 0 -101 -41q-36 -38 -36 -100q0 -65 50 -105q40 -31 91 -31h112v-51h-125q-63 0 -106 -42q-42 -40 -43 -105q0 -75 48 -120q40 -39 100 -39q85 0 127 60l49 -27q-23 -40 -69.5 -62t-106.5 -22
q-101 0 -159 66q-49 55 -49 137q2 67 36 115q30 43 84 65q-50 26 -75 72q-23 40 -23 90q0 90 59 143q53 49 138 49z" />
    <glyph glyph-name="uni0665" unicode="&#x665;" horiz-adv-x="493" 
d="M247 600q177 0 184 -214l10 -181q3 -214 -194 -214q-196 0 -193 214l10 181q7 214 183 214zM248 549q-119 0 -123 -156l-11 -193q-4 -158 134 -158q139 0 133 158l-10 193q-4 156 -123 156z" />
    <glyph glyph-name="uni0666" unicode="&#x666;" horiz-adv-x="501" 
d="M214 726q97 0 150 -61q45 -52 45 -136v-529h-60v530q0 75 -44 114q-35 31 -87 31q-41 0 -67 -13.5t-51 -47.5l-48 27q49 85 162 85z" />
    <glyph glyph-name="uni0667" unicode="&#x667;" horiz-adv-x="630" 
d="M352 0h-74l-226 714h65l198 -623l199 623h65z" />
    <glyph glyph-name="uni0668" unicode="&#x668;" horiz-adv-x="630" 
d="M514 0l-199 623l-198 -623h-65l226 714h74l227 -714h-65z" />
    <glyph glyph-name="uni0669" unicode="&#x669;" horiz-adv-x="545" 
d="M259 726q93 0 139 -45q55 -52 55 -154l-1 -527h-60l1 299h-134q-101 0 -146 51q-46 51 -48 147v30q0 97 49 148q47 51 145 51zM260 675q-67 0 -99 -36q-35 -38 -35 -112v-29q0 -73 34 -112q32 -36 100 -36h133v177q0 75 -34 112q-33 36 -99 36z" />
    <glyph glyph-name="uni066A" unicode="&#x66a;" horiz-adv-x="414" 
d="M348 714l-224 -714h-59l224 714h59zM139 681v-82h-57v82h57zM275 33v82h57v-82h-57z" />
    <glyph glyph-name="uni066B" unicode="&#x66b;" horiz-adv-x="214" 
d="M165 51l-65 -275h-52l47 275h70z" />
    <glyph glyph-name="uni066C" unicode="&#x66c;" horiz-adv-x="214" 
d="M165 276l-65 -276h-52l47 276h70z" />
    <glyph glyph-name="uni066E" unicode="&#x66e;" horiz-adv-x="878" 
d="M785 480v-278q0 -103 -54 -156q-47 -46 -128 -46h-325q-106 0 -166 75q-47 58 -47 137q0 126 76 212l43 -31q-63 -73 -63 -177q0 -73 47 -120q45 -45 119 -45h316q62 0 94 45q28 38 28 102v282h60z" />
    <glyph glyph-name="uni0670" unicode="&#x670;" 
d="M20 567h-40v148h40v-148z" />
    <glyph glyph-name="uni0671" unicode="&#x671;" horiz-adv-x="244" 
d="M165 914q40 0 62 -23q19 -19 19 -47q0 -35 -19.5 -55t-54.5 -20q-25 0 -63 19l-6 3q-28 12 -42 12q-18 0 -32 -26l-31 19q26 44 60 44q9 0 17 -2q12 36 36 56t54 20zM166 878q-15 0 -30.5 -14.5t-23.5 -35.5q40 -23 58 -23q16 0 25.5 9.5t9.5 25.5q0 38 -39 38zM152 0
h-60v658h60v-658z" />
    <glyph glyph-name="uni0679" unicode="&#x679;" horiz-adv-x="878" 
d="M405 727v-72q26 33 69 33q48 0 68 -33q12 -20 12 -45q0 -69 -74 -69h-146v37h31l-1 149h41zM476 653q-25 0 -45 -21t-27 -54h82q12 0 19.5 9.5t7.5 24.5q0 19 -10 30t-27 11zM785 480v-278q0 -103 -54 -156q-47 -46 -128 -46h-325q-106 0 -166 75q-47 58 -47 137
q0 126 76 212l43 -31q-63 -73 -63 -177q0 -73 47 -120q45 -45 119 -45h316q62 0 94 45q28 38 28 102v282h60z" />
    <glyph glyph-name="uni067E" unicode="&#x67e;" horiz-adv-x="878" 
d="M785 480v-278q0 -103 -54 -156q-47 -46 -128 -46h-325q-106 0 -166 75q-47 58 -47 137q0 126 76 212l43 -31q-63 -73 -63 -177q0 -73 47 -120q45 -45 119 -45h316q62 0 94 45q28 38 28 102v282h60zM393 -212h-54v95h54v-95zM523 -212h-54v95h54v-95zM456 -341h-51v83h51
v-83z" />
    <glyph glyph-name="uni0686" unicode="&#x686;" horiz-adv-x="687" 
d="M293 491q136 0 190 -101q19 -34 26 -64.5t15 -114.5q8 -72 26 -110q13 -29 30 -39.5t48 -10.5h2v-51h-269q-72 0 -120 -15q-60 -18 -93 -66q-29 -42 -29 -94q0 -76 56 -128q42 -39 95 -47q1 0 7 -1q10 -1 17 -1l23 -49q-8 -1 -23 -1q-18 0 -46 4q-84 16 -137 75
q-53 58 -53 144q0 74 38 128q37 53 106 80q53 19 141 22h167q-26 29 -37 91q-3 17 -12 92q-11 89 -33 130q-38 75 -136 75q-74 0 -132 -72l-47 29q30 44 78 70q48 25 102 25zM387 -202h-45v86h45v-86zM505 -202h-45v86h45v-86zM445 -321h-43v75h43v-75z" />
    <glyph glyph-name="uni0688" unicode="&#x688;" horiz-adv-x="507" 
d="M237 789v-72q26 33 69 33q48 0 68 -33q12 -19 12 -44q0 -70 -74 -70h-146v38h31l-1 148h41zM308 716q-25 0 -45 -21t-27 -54h82q12 0 19.5 9.5t7.5 23.5q0 19 -10 30.5t-27 11.5zM179 443l25 48q238 -44 238 -283q0 -208 -193 -208h-191v51h191q133 0 133 155
q0 115 -67 176q-48 43 -136 61z" />
    <glyph glyph-name="uni0691" unicode="&#x691;" horiz-adv-x="337" 
d="M174 790v-72q26 33 69 33q48 0 68 -33q12 -19 12 -44q0 -70 -74 -70h-146v37h31l-1 149h41zM245 717q-25 0 -45 -21t-27 -55h82q11 0 19 10t8 24q0 19 -10 30.5t-27 11.5zM245 480v-463q0 -83 -7 -127.5t-26 -76.5q-40 -73 -144 -73q-61 0 -105 22l20 48q34 -17 78 -17
q71 0 97.5 46.5t26.5 169.5v471h60z" />
    <glyph glyph-name="uni0698" unicode="&#x698;" horiz-adv-x="337" 
d="M240 746h-51v83h51v-83zM177 605h-54v95h54v-95zM307 605h-54v95h54v-95zM245 480v-463q0 -83 -7 -127.5t-26 -76.5q-40 -73 -144 -73q-61 0 -105 22l20 48q34 -17 78 -17q71 0 97.5 46.5t26.5 169.5v471h60z" />
    <glyph glyph-name="uni06A1" unicode="&#x6a1;" horiz-adv-x="998" 
d="M725 491q104 0 151 -59q42 -53 42 -155v-63q0 -117 -54 -169q-47 -45 -139 -45h-447q-106 0 -166 75q-47 58 -47 137q0 126 76 212l43 -31q-63 -73 -63 -177q0 -73 47 -120q45 -45 119 -45h302q-60 46 -60 163v63q0 117 55 169q48 45 141 45zM724 439q-74 0 -106 -44
q-28 -38 -28 -114v-72q0 -86 36 -124q33 -34 98 -34q75 0 107 45q27 38 27 113v72q0 87 -36 124q-32 34 -98 34z" />
    <glyph glyph-name="uni06A4" unicode="&#x6a4;" horiz-adv-x="998" 
d="M749 745h-51v83h51v-83zM686 604h-54v95h54v-95zM816 604h-54v95h54v-95zM725 491q104 0 151 -59q42 -53 42 -155v-63q0 -117 -54 -169q-47 -45 -139 -45h-447q-106 0 -166 75q-47 58 -47 137q0 126 76 212l43 -31q-63 -73 -63 -177q0 -73 47 -120q45 -45 119 -45h302
q-60 46 -60 163v63q0 117 55 169q48 45 141 45zM724 439q-74 0 -106 -44q-28 -38 -28 -114v-72q0 -86 36 -124q33 -34 98 -34q75 0 107 45q27 38 27 113v72q0 87 -36 124q-32 34 -98 34z" />
    <glyph glyph-name="uni06A9" unicode="&#x6a9;" horiz-adv-x="866" 
d="M468 480h135q93 0 141 -60q41 -52 41 -142v-76q0 -103 -54 -156q-47 -46 -128 -46h-325q-106 0 -166 75q-47 58 -47 137q0 126 76 212l43 -31q-63 -73 -63 -177q1 -73 47 -120q46 -45 119 -45h316q62 0 94 45q28 38 28 102v84q0 73 -36 112q-32 34 -86 34h-205v23
q0 30 36 72l157 191h69z" />
    <glyph glyph-name="uni06AF" unicode="&#x6af;" horiz-adv-x="974" 
d="M576 480h135q93 0 141 -60q41 -52 41 -142v-76q0 -103 -54 -156q-47 -46 -128 -46h-433q-106 0 -166 75q-47 58 -47 137q0 125 78 212l43 -31q-64 -71 -64 -176q0 -73 47 -120q45 -46 118 -46h424q62 0 94 45q28 38 28 102v84q0 73 -36 112q-32 34 -86 34h-206v24
q0 17 5.5 28t26.5 37q3 4 5 6l157 191h69zM370 480h-50l192 234h51z" />
    <glyph glyph-name="uni06BA" unicode="&#x6ba;" horiz-adv-x="735" 
d="M642 480v-434q0 -158 -85 -237q-73 -69 -200 -69q-76 0 -141 34q-68 35 -107 100q-43 71 -43 165q0 66 21 130.5t58 109.5l44 -30q-31 -41 -49 -95.5t-18 -109.5q0 -128 83 -197q64 -54 153 -54q110 0 169 69q55 63 55 176v442h60z" />
    <glyph glyph-name="uni06BE" unicode="&#x6be;" horiz-adv-x="549" 
d="M275 491q105 0 152 -59q42 -52 42 -155v-72q0 -118 -55 -169q-47 -45 -139 -45q-106 0 -153 59q-42 52 -42 155v72q0 117 55 169q48 45 140 45zM274 439q-74 0 -106 -44q-28 -38 -28 -114v-81q0 -86 36 -124q33 -34 98 -34q75 0 107 45q27 38 27 113v81q0 87 -36 124
q-32 34 -98 34z" />
    <glyph glyph-name="uni06C0" unicode="&#x6c0;" horiz-adv-x="549" 
d="M348 605h-155v38h31q-14 16 -14 40q0 30 20 49.5t51 19.5q18 0 36.5 -10t24.5 -24l-31 -19l-1 1q-12 18 -31 18q-28 0 -28 -35q0 -17 12.5 -28.5t31.5 -11.5h53v-38zM275 491q105 0 152 -59q42 -52 42 -155v-72q0 -118 -55 -169q-47 -45 -139 -45q-106 0 -153 59
q-42 52 -42 155v72q0 117 55 169q48 45 140 45zM274 439q-74 0 -106 -44q-28 -38 -28 -114v-81q0 -86 36 -124q33 -34 98 -34q75 0 107 45q27 38 27 113v81q0 87 -36 124q-32 34 -98 34z" />
    <glyph glyph-name="uni06C1" unicode="&#x6c1;" horiz-adv-x="549" 
d="M275 491q105 0 152 -59q42 -52 42 -155v-72q0 -118 -55 -169q-47 -45 -139 -45q-106 0 -153 59q-42 52 -42 155v72q0 117 55 169q48 45 140 45zM274 439q-74 0 -106 -44q-28 -38 -28 -114v-81q0 -86 36 -124q33 -34 98 -34q75 0 107 45q27 38 27 113v81q0 87 -36 124
q-32 34 -98 34z" />
    <glyph glyph-name="uni06C2" unicode="&#x6c2;" horiz-adv-x="549" 
d="M348 605h-155v38h31q-14 16 -14 40q0 30 20 49.5t51 19.5q18 0 36.5 -10t24.5 -24l-31 -19l-1 1q-12 18 -31 18q-28 0 -28 -35q0 -17 12.5 -28.5t31.5 -11.5h53v-38zM275 491q105 0 152 -59q42 -52 42 -155v-72q0 -118 -55 -169q-47 -45 -139 -45q-106 0 -153 59
q-42 52 -42 155v72q0 117 55 169q48 45 140 45zM274 439q-74 0 -106 -44q-28 -38 -28 -114v-81q0 -86 36 -124q33 -34 98 -34q75 0 107 45q27 38 27 113v81q0 87 -36 124q-32 34 -98 34z" />
    <glyph glyph-name="uni06C3" unicode="&#x6c3;" horiz-adv-x="549" 
d="M237 604h-54v95h54v-95zM367 604h-54v95h54v-95zM275 491q105 0 152 -59q42 -52 42 -155v-72q0 -118 -55 -169q-47 -45 -139 -45q-106 0 -153 59q-42 52 -42 155v72q0 117 55 169q48 45 140 45zM274 439q-74 0 -106 -44q-28 -38 -28 -114v-81q0 -86 36 -124
q33 -34 98 -34q75 0 107 45q27 38 27 113v81q0 87 -36 124q-32 34 -98 34z" />
    <glyph glyph-name="uni06CC" unicode="&#x6cc;" horiz-adv-x="731" 
d="M500 491q50 0 99 -28q43 -24 65 -60l-48 -26q-21 28 -53 45t-65 17q-66 0 -110 -53q-41 -51 -42 -131q1 -119 75 -171q47 -33 111 -33h88q53 0 53 -49q0 -55 -30 -112q-34 -65 -97 -104q-74 -46 -176 -46q-146 0 -230 92q-75 83 -75 213q0 103 47 184l45 -30
q-35 -71 -35 -147q0 -131 79 -201q66 -58 170 -58q125 0 195 87q20 25 32.5 55t12.5 53q0 12 -12 12h-95q-96 0 -160 77q-58 69 -58 169q0 118 64 185q57 60 150 60zM332 -466h-54v95h54v-95zM462 -466h-54v95h54v-95zM395 -595h-51v83h51v-83z" />
    <glyph glyph-name="uni06D2" unicode="&#x6d2;" horiz-adv-x="882" 
d="M604 714q62 0 113 -31q41 -24 65 -60l-49 -26q-49 66 -138 66q-80 0 -126 -63q-38 -54 -38 -135v-37h-169q-62 0 -94 -44q-28 -39 -28 -102v-84q0 -73 36 -112q32 -35 86 -35h562v-51h-562q-93 0 -141 60q-41 52 -41 142v76q0 103 54 156q47 46 128 46h111q0 111 69 176
q62 58 162 58z" />
    <glyph glyph-name="uni06D3" unicode="&#x6d3;" horiz-adv-x="882" 
d="M265 603h-155v38h31q-14 16 -14 40q0 30 20 49.5t51 19.5q18 0 36.5 -10t24.5 -24l-31 -19l-1 1q-12 18 -31 18q-28 0 -28 -35q0 -17 12.5 -28.5t31.5 -11.5h53v-38zM604 714q62 0 113 -31q41 -24 65 -60l-49 -26q-49 66 -138 66q-80 0 -126 -63q-38 -54 -38 -135v-37
h-169q-62 0 -94 -44q-28 -39 -28 -102v-84q0 -73 36 -112q32 -35 86 -35h562v-51h-562q-93 0 -141 60q-41 52 -41 142v76q0 103 54 156q47 46 128 46h111q0 111 69 176q62 58 162 58z" />
    <glyph glyph-name="uni06F0" unicode="&#x6f0;" horiz-adv-x="274" 
d="M223 273l-84 -83l-87 87l83 84z" />
    <glyph glyph-name="uni06F1" unicode="&#x6f1;" horiz-adv-x="244" 
d="M152 714v-714h-60v714h60z" />
    <glyph glyph-name="uni06F2" unicode="&#x6f2;" horiz-adv-x="501" 
d="M287 726q113 0 162 -85l-48 -27q-25 34 -51 47.5t-67 13.5q-60 0 -96 -41q-35 -39 -35 -104v-530h-60v529q0 96 59 150q51 47 136 47z" />
    <glyph glyph-name="uni06F3" unicode="&#x6f3;" horiz-adv-x="838" 
d="M758 714v-216q0 -102 -54 -155q-47 -45 -128 -45q-108 0 -149 83q-40 -83 -151 -83q-82 0 -124 53v-351h-60v714h60v-220q0 -73 36 -111q32 -34 86 -34q61 0 93 44q28 38 28 101v220h60v-220q0 -73 35 -111q32 -34 86 -34q62 0 94 44q28 38 28 101v220h60z" />
    <glyph glyph-name="uni06F4" unicode="&#x6f4;" horiz-adv-x="523" 
d="M154 441q65 -42 142 -42q80 0 169 48v-54q-85 -44 -173 -44q-75 0 -138 33l-2 -382h-60v714h60v-64q20 35 60.5 55.5t86.5 20.5q71 0 128 -33v-58l-15 7q-60 30 -104 30q-89 0 -128 -82q-28 -58 -26 -149z" />
    <glyph glyph-name="uni06F5" unicode="&#x6f5;" horiz-adv-x="493" 
d="M245 600q172 0 184 -214l11 -210q1 -94 -42 -144q-34 -40 -85 -40q-31 0 -63 18q-3 3 -5 3t-5 -3q-30 -19 -64 -19q-61 0 -97 59q-33 55 -28 144l10 192q10 214 184 214zM245 549q-115 0 -124 -156l-11 -221q0 -61 24 -97q22 -34 60 -34q24 0 47 22q2 2 4 2t4 -2
q21 -21 47 -21q44 0 66 43q17 35 17 89l-11 219q-9 156 -123 156z" />
    <glyph glyph-name="uni06F6" unicode="&#x6f6;" horiz-adv-x="569" 
d="M336 351q89 38 175 54l1 -53q-143 -33 -210 -83q-122 -91 -189 -269h-65q72 205 192 297q-67 11 -112 79q-39 60 -39 133q0 101 59 161q55 56 144 56q52 0 96 -23t70 -65l-49 -27q-48 64 -114 64q-69 0 -110 -47q-37 -44 -37 -115q0 -72 46 -125q41 -47 95 -47
q19 0 47 10z" />
    <glyph glyph-name="uni06F7" unicode="&#x6f7;" horiz-adv-x="630" 
d="M352 0h-74l-226 714h65l198 -623l199 623h65z" />
    <glyph glyph-name="uni06F8" unicode="&#x6f8;" horiz-adv-x="630" 
d="M514 0l-199 623l-198 -623h-65l226 714h74l227 -714h-65z" />
    <glyph glyph-name="uni06F9" unicode="&#x6f9;" horiz-adv-x="545" 
d="M259 726q93 0 139 -45q55 -52 55 -154l-1 -527h-60l1 299h-134q-101 0 -146 51q-46 51 -48 147v30q0 97 49 148q47 51 145 51zM260 675q-67 0 -99 -36q-35 -38 -35 -112v-29q0 -73 34 -112q32 -36 100 -36h133v177q0 75 -34 112q-33 36 -99 36z" />
    <glyph glyph-name="uni2011" unicode="&#x2011;" horiz-adv-x="479" 
d="M105 340v53h268v-53h-268z" />
    <glyph glyph-name="uniF805" horiz-adv-x="612" 
d="M454 724q56 0 100 -22v-56q-52 24 -95 24t-83 -42q-2 -2 -4 -2q-3 0 -4 2q-45 47 -99 47t-86 -41q-31 -40 -31 -108v-526h-60v526q0 97 52 151q46 48 120 49q67 0 107 -32q16 13 39.5 21.5t43.5 8.5z" />
    <glyph glyph-name="uniF806" horiz-adv-x="584" 
d="M432 646l-263 -251q-30 -30 -40.5 -60.5t-10.5 -88.5v-49q0 -73 37 -112q33 -34 87 -34h284v-51h-286q-93 0 -141 60q-41 52 -41 142v49q0 62 11 96q15 49 57 83l306 290v-74z" />
    <glyph glyph-name="uniFBB2" unicode="&#xfbb2;" 
d="M28 578h-60v95h60v-95z" />
    <glyph glyph-name="uniFBB3" unicode="&#xfbb3;" 
d="M30 -206h-60v96h60v-96z" />
    <glyph glyph-name="uniFBB4" unicode="&#xfbb4;" 
d="M-37 579h-54v95h54v-95zM93 579h-54v95h54v-95z" />
    <glyph glyph-name="uniFBB5" unicode="&#xfbb5;" 
d="M-36 -205h-54v95h54v-95zM94 -205h-54v95h54v-95z" />
    <glyph glyph-name="uniFBB6" unicode="&#xfbb6;" 
d="M26 717h-51v83h51v-83zM-37 576h-54v95h54v-95zM93 576h-54v95h54v-95z" />
    <glyph glyph-name="uniFBB7" unicode="&#xfbb7;" 
d="M-37 -239v-95h-54v95h54zM93 -239v-95h-54v95h54zM26 -110v-83h-51v83h51z" />
    <glyph glyph-name="uniFD3E" unicode="&#xfd3e;" horiz-adv-x="519" 
d="M156 502h76q29 152 130 305l46 -27q-42 -74 -71 -139q-26 -59 -42 -139h67l-58 -53q-24 10 -45 10t-45 -10zM112 303l-54 26v37l54 26v59l51 -56q-11 -26 -11 -47q0 -26 11 -48l-51 -56v59zM461 329l-54 -26v-59l-51 56q11 22 11 48q0 25 -11 47l51 56v-59l54 -26v-37z
M215 348q0 20 12.5 33t31.5 13t31.5 -13t12.5 -33t-13 -33.5t-31 -13.5t-31 13.5t-13 33.5zM362 193h-68q17 -89 51 -163q23 -51 63 -120l-46 -28q-103 155 -132 311h-74l58 54q20 -10 45 -10q23 0 45 9z" />
    <glyph glyph-name="uniFD3F" unicode="&#xfd3f;" horiz-adv-x="519" 
d="M363 502l-58 -53q-24 10 -45 10t-45 -10l-58 53h67q-16 80 -42 139q-29 65 -71 139l46 27q101 -153 130 -305h76zM112 392v59l51 -56q-11 -22 -11 -47q0 -26 11 -48l-51 -56v59l-54 26v37zM407 244l-51 56q11 22 11 48q0 21 -11 47l51 56v-59l54 -26v-37l-54 -26v-59z
M304 348q0 -20 -13 -33.5t-31 -13.5t-31 13.5t-13 33.5t12.5 33t31.5 13t31.5 -13t12.5 -33zM157 193l58 53q22 -9 45 -9q25 0 45 10l58 -54h-74q-29 -156 -132 -311l-46 28q40 69 63 120q34 74 51 163h-68z" />
  </font>
</defs>
</svg>
